<?xml version="1.0" encoding="utf-8"?>
<!-- Generator: Adobe Illustrator 22.1.0, SVG Export Plug-In . SVG Version: 6.00 Build 0)  -->
<svg version="1.1" id="Calque_1" xmlns="http://www.w3.org/2000/svg" xmlns:xlink="http://www.w3.org/1999/xlink" x="0px" y="0px"
	 width="512px" height="273.6px" viewBox="0 0 512 273.6" style="enable-background:new 0 0 512 273.6;" xml:space="preserve">
<style type="text/css">
	.st0{fill:#231F20;}
</style>
<g>
	<path class="st0" d="M98.6,73h104.2c10,0,18.2-8.2,18.2-18.2s-8.2-18.2-18.2-18.2H98.6c-10,0-18.2,8.2-18.2,18.2S88.6,73,98.6,73z"
		/>
	<path class="st0" d="M202.8,127.7H98.6c-10,0-18.2,8.2-18.2,18.2s8.2,18.2,18.2,18.2h104.2c10,0,18.2-8.2,18.2-18.2
		S212.8,127.7,202.8,127.7z"/>
	<path class="st0" d="M202.8,218.9H98.6c-10,0-18.2,8.2-18.2,18.2s8.2,18.2,18.2,18.2h104.2c10,0,18.2-8.2,18.2-18.2
		S212.8,218.9,202.8,218.9z"/>
	<polygon class="st0" points="21.6,19 22.9,17.8 24.3,16.5 25.5,15.3 26.3,14.5 26.2,17.7 26,21.3 26,24.7 25.9,27.4 25.9,65.1 
		39.7,65.1 39.7,0 28.4,0 7.4,16.7 14.1,25 	"/>
	<path class="st0" d="M17.3,155.6l7.8-7.9c2.3-2.3,4.5-4.5,6.5-6.7c2-2.2,3.8-4.5,5.4-6.7c1.5-2.2,2.7-4.5,3.6-6.9
		c0.9-2.3,1.4-4.8,1.4-7.3c0-2.8-0.5-5.3-1.4-7.6c-0.9-2.3-2.3-4.2-4-5.8s-3.8-2.8-6.3-3.7c-2.5-0.9-5.3-1.3-8.4-1.3
		c-2.6,0-5,0.3-7.1,0.8c-2.1,0.5-4.1,1.2-5.8,2.1c-1.7,0.9-3.3,1.9-4.8,3L0,111.1l7.5,8.9c2.4-2.1,4.6-3.8,6.8-4.9
		c2.2-1.2,4.4-1.7,6.8-1.7c2.2,0,4,0.6,5.3,1.8c1.3,1.2,2,2.9,2,5.1c0,2-0.3,3.8-0.9,5.6c-0.6,1.7-1.5,3.4-2.6,5.1s-2.5,3.4-4.1,5.1
		c-1.6,1.8-3.3,3.7-5.2,5.8L0.2,158.3v9.6h43.7v-11.6H17.3V155.6z"/>
	<path class="st0" d="M27.9,238.7v-0.3c2-0.5,3.8-1.2,5.5-2.1c1.7-0.9,3.2-2,4.5-3.4c1.3-1.4,2.3-2.9,3-4.7c0.7-1.8,1.1-3.8,1.1-6.1
		c0-2.5-0.5-4.6-1.5-6.6c-1-1.9-2.5-3.5-4.3-4.9c-1.9-1.3-4.1-2.3-6.8-3c-2.6-0.7-5.5-1.1-8.7-1.1c-2.3,0-4.4,0.2-6.4,0.5
		c-2,0.3-3.8,0.8-5.6,1.4c-1.7,0.6-3.3,1.2-4.8,2l-4.1,2.5l6.9,9.2l2.4-1.5l2.9-1.4l3.4-1.1l4-0.4c3.1,0,5.4,0.6,6.8,2
		c1.5,1.3,2.2,3.1,2.2,5.4l-0.7,3.6l-2.3,3c-1.1,0.9-2.5,1.5-4.3,2c-1.8,0.5-4.1,0.7-6.8,0.7H9.8v9.7h4.6c2.9,0,5.3,0.2,7.3,0.6
		c2,0.4,3.6,1,4.8,1.8l2.7,2.8l0.8,3.6l-0.6,3.9l-2.2,3.1c-1,0.9-2.4,1.5-4.1,2c-1.7,0.5-3.8,0.7-6.3,0.7l-4.1-0.3l-4.4-0.8
		l-4.5-1.4l-4.2-1.9v11.7c2.7,1.2,5.6,2.1,8.7,2.7c3.1,0.6,6.4,0.9,9.9,0.9c4.4,0,8.2-0.5,11.4-1.5c3.2-1,5.9-2.4,8-4.2
		c2.1-1.8,3.7-3.9,4.7-6.3c1-2.4,1.5-5.1,1.5-7.9c0-4.3-1.3-7.7-4-10.3C37.2,240.9,33.2,239.3,27.9,238.7z"/>
</g>
<g>
	<path class="st0" d="M386.6,73h104.2c10,0,18.2-8.2,18.2-18.2s-8.2-18.2-18.2-18.2H386.6c-10,0-18.2,8.2-18.2,18.2
		S376.6,73,386.6,73z"/>
	<path class="st0" d="M490.8,127.7H386.6c-10,0-18.2,8.2-18.2,18.2s8.2,18.2,18.2,18.2h104.2c10,0,18.2-8.2,18.2-18.2
		S500.8,127.7,490.8,127.7z"/>
	<path class="st0" d="M490.8,218.9H386.6c-10,0-18.2,8.2-18.2,18.2s8.2,18.2,18.2,18.2h104.2c10,0,18.2-8.2,18.2-18.2
		S500.8,218.9,490.8,218.9z"/>
	<polygon class="st0" points="309.6,19 310.9,17.8 312.3,16.5 313.5,15.3 314.3,14.5 314.2,17.7 314,21.3 314,24.7 313.9,27.4 
		313.9,65.1 327.7,65.1 327.7,0 316.4,0 295.4,16.7 302.1,25 	"/>
	<path class="st0" d="M305.3,155.6l7.8-7.9c2.3-2.3,4.5-4.5,6.5-6.7c2-2.2,3.8-4.5,5.4-6.7c1.5-2.2,2.7-4.5,3.6-6.9
		c0.9-2.3,1.4-4.8,1.4-7.3c0-2.8-0.5-5.3-1.4-7.6c-0.9-2.3-2.3-4.2-4-5.8s-3.8-2.8-6.3-3.7c-2.5-0.9-5.3-1.3-8.4-1.3
		c-2.6,0-5,0.3-7.1,0.8c-2.1,0.5-4.1,1.2-5.8,2.1c-1.7,0.9-3.3,1.9-4.8,3l-4.2,3.5l7.5,8.9c2.4-2.1,4.6-3.8,6.8-4.9
		c2.2-1.2,4.4-1.7,6.8-1.7c2.2,0,4,0.6,5.3,1.8c1.3,1.2,2,2.9,2,5.1c0,2-0.3,3.8-0.9,5.6c-0.6,1.7-1.5,3.4-2.6,5.1s-2.5,3.4-4.1,5.1
		c-1.6,1.8-3.3,3.7-5.2,5.8l-15.3,16.5v9.6h43.7v-11.6h-26.5V155.6z"/>
	<path class="st0" d="M315.9,238.7v-0.3c2-0.5,3.8-1.2,5.5-2.1c1.7-0.9,3.2-2,4.5-3.4c1.3-1.4,2.3-2.9,3-4.7
		c0.7-1.8,1.1-3.8,1.1-6.1c0-2.5-0.5-4.6-1.5-6.6c-1-1.9-2.5-3.5-4.3-4.9c-1.9-1.3-4.1-2.3-6.8-3c-2.6-0.7-5.5-1.1-8.7-1.1
		c-2.3,0-4.4,0.2-6.4,0.5c-2,0.3-3.8,0.8-5.6,1.4c-1.7,0.6-3.3,1.2-4.8,2l-4.1,2.5l6.9,9.2l2.4-1.5l2.9-1.4l3.4-1.1l4-0.4
		c3.1,0,5.4,0.6,6.8,2c1.5,1.3,2.2,3.1,2.2,5.4l-0.7,3.6l-2.3,3c-1.1,0.9-2.5,1.5-4.3,2c-1.8,0.5-4.1,0.7-6.8,0.7h-4.5v9.7h4.6
		c2.9,0,5.3,0.2,7.3,0.6c2,0.4,3.6,1,4.8,1.8l2.7,2.8l0.8,3.6l-0.6,3.9l-2.2,3.1c-1,0.9-2.4,1.5-4.1,2c-1.7,0.5-3.8,0.7-6.3,0.7
		l-4.1-0.3l-4.4-0.8l-4.5-1.4l-4.2-1.9v11.7c2.7,1.2,5.6,2.1,8.7,2.7c3.1,0.6,6.4,0.9,9.9,0.9c4.4,0,8.2-0.5,11.4-1.5
		c3.2-1,5.9-2.4,8-4.2c2.1-1.8,3.7-3.9,4.7-6.3c1-2.4,1.5-5.1,1.5-7.9c0-4.3-1.3-7.7-4-10.3C325.2,240.9,321.2,239.3,315.9,238.7z"
		/>
</g>
</svg>
