<?xml version="1.0" encoding="utf-8"?>
<!-- Generator: Adobe Illustrator 22.1.0, SVG Export Plug-In . SVG Version: 6.00 Build 0)  -->
<svg version="1.1" id="Calque_1" xmlns="http://www.w3.org/2000/svg" xmlns:xlink="http://www.w3.org/1999/xlink" x="0px" y="0px"
	 width="512px" height="512px" viewBox="0 0 512 512" style="enable-background:new 0 0 512 512;" xml:space="preserve">
<path d="M464,32H48C21.5,32,0,53.5,0,80v352c0,26.5,21.5,48,48,48h416c26.5,0,48-21.5,48-48V80C512,53.5,490.5,32,464,32z M224,416
	H64V90h160V416z M448,416H288V90h160V416z M332.6,154.9L135.4,352.1c-2.4,2.4-2.4,6.2,0,8.6l20,20c2.4,2.4,6.2,2.4,8.6,0
	l197.2-197.2l16.4,16.4c7.6,7.6,20.7,2.2,20.7-8.6v-61.4c0-6.7-5.4-12.1-12.1-12.1h-61.4c-10.8,0-16.2,13-8.6,20.7L332.6,154.9z"/>
</svg>
