<svg version="1.1" id="Calque_1" xmlns="http://www.w3.org/2000/svg" xmlns:xlink="http://www.w3.org/1999/xlink" x="0px" y="0px"
	 viewBox="0 0 24 24" style="enable-background:new 0 0 24 24;" xml:space="preserve">
<path class="ql-stroke" d="M7,23.504c-1.7063,0-3.7937,0-5.5,0c-0.0666,0-0.4209-0.0067-0.7071-0.2929
	C0.6119,23.0301,0.5,22.7801,0.5,22.504v-21c0-0.5523,0.4477-1,1-1c2.6609,0,5.5,0,5.5,0"/>
<path class="ql-stroke" d="M17,0.504c1.5191,0,3.9809,0,5.5,0c0.0666,0,0.4209,0.0067,0.7071,0.2929
	C23.3881,0.9779,23.5,1.2279,23.5,1.504v21c0,0.5523-0.4477,1-1,1c-1.6277,0-3.8723,0-5.5,0"/>
<path class="ql-stroke" d="M10.4,17.994h-4c-1.3255,0-2.4-1.0069-2.4-2.2489V8.2489C4,7.0069,5.0745,6,6.4,6h4"/>
<line class="ql-stroke" x1="4" y1="12.003" x2="8" y2="12.003"/>
<line class="ql-stroke" x1="13.6" y1="18" x2="20" y2="6.006"/>
<line class="ql-stroke" x1="20" y1="18" x2="13.6" y2="6.006"/>
</svg>
