<svg viewBox="0 0 18 18">
	<g>
		<path class="st0 ql-fill" d="M8.9,9.8c2.1,0,3.2-2.1,3.2-4.9c0-1.8-1.4-3-3.2-3c-1.8,0-3.2,1.3-3.2,3C5.7,7.4,6.8,9.8,8.9,9.8z M15.2,13.9
			C15.1,13.9,15.1,13.8,15.2,13.9c0-0.1,0-0.2-0.1-0.2c-0.2-0.4-1.1-1.8-1.6-3c-0.3-0.6-0.8-0.9-1.4-0.8c-0.5,0-1,0.2-1.4,0.7
			c-0.4,0.4-1.1,0.6-1.8,0.6c-0.7,0-1.4-0.3-1.8-0.6c-0.4-0.4-0.9-0.7-1.4-0.7c-0.5,0-1,0.2-1.4,0.8c-0.6,1.1-1.5,2.6-1.6,3
			c0,0.1,0,0.1,0,0.2c0,0,0,0.1,0,0.1c0,0,0,0.1,0,0.1c0,0.1,0,0.1,0,0.2c0,0,0,0.1,0.1,0.1c0,0.1,0.1,0.1,0.1,0.1c0,0,0,0,0,0
			c0.1,0,0.1,0.1,0.1,0.1s0.1,0,0.2,0c1.4,0,10.9,0,11.5,0c0.1,0,0.2,0,0.2,0s0.1,0,0.1-0.1c0,0,0,0,0,0c0,0,0.1-0.1,0.1-0.1
			c0,0,0,0,0.1-0.1c0-0.1,0-0.1,0-0.2C15.2,14,15.2,13.9,15.2,13.9z"/>
	</g>
</svg>
