<svg viewBox="0 0 24 24">
<g>
	<path class="ql-stroke" d="M17.5,23.5005c3.3137,0,6-2.6863,6-6s-2.6863-6-6-6c-3.3137,0-6,2.6863-6,6
		S14.1863,23.5005,17.5,23.5005z"/>
	<path class="ql-stroke" d="M17.4996,14.5001l0.0007,5.9998"/>
	<path class="ql-stroke" d="M20.4999,17.5004l-5.9998-0.0007"/>
	<path class="ql-stroke" d="M21.331,10.4765c0.1089-0.4849,0.1656-0.9801,0.169-1.477c0-4.693-4.7-8.5-10.5-8.5
		s-10.5,3.807-10.5,8.5c0.0527,2.3409,1.1623,4.5321,3.018,5.96l-2.018,4.54l5.637-2.6c0.7714,0.2426,1.5644,0.41,2.368,0.5"/>
</g>
</svg>
