<?xml version="1.0" encoding="utf-8"?>
<!-- Generator: Adobe Illustrator 23.0.0, SVG Export Plug-In . SVG Version: 6.00 Build 0)  -->
<svg version="1.1" id="Calque_2" xmlns="http://www.w3.org/2000/svg" xmlns:xlink="http://www.w3.org/1999/xlink" x="0px" y="0px"
	 viewBox="0 0 48 24" style="enable-background:new 0 0 48 24;" xml:space="preserve">
<style type="text/css">
	.st0{fill:none;stroke:#000000;stroke-linecap:round;stroke-linejoin:round;}
</style>
<g id="Images-Photography__x2F__Pictures__x2F__picture-double-shapes-1">
	<g id="Group_31">
		<g id="picture-double-shapes-1">
			<path id="Oval_46" class="st0" d="M5.5,16.5c1.7,0,3-1.3,3-3c0-1.7-1.3-3-3-3c-1.7,0-3,1.3-3,3C2.5,15.2,3.8,16.5,5.5,16.5z"/>
			<path id="Shape_156" class="st0" d="M9.5,16.5h4c0.3,0,0.7-0.2,0.9-0.5c0.2-0.3,0.2-0.7,0-1l-3.7-7.1c-0.1-0.3-0.4-0.4-0.7-0.4
				c-0.3,0-0.6,0.2-0.7,0.4L8.5,9.4"/>
		</g>
	</g>
</g>
<g id="Interface-Essential__x2F__Paragraphs__x2F__insert-image-top">
	<g id="Group_496">
		<g id="insert-image-top">
			<path id="Shape_2449" class="st0" d="M44.5,22H29"/>
			<path id="Rectangle-path_136" class="st0" d="M29,10.7c0-0.4,0.3-0.7,0.8-0.7H43c0.4,0,0.8,0.3,0.8,0.7v2.7
				c0,0.4-0.3,0.7-0.8,0.7H29.8c-0.4,0-0.8-0.3-0.8-0.7V10.7z"/>
			<path id="Shape_2450_1_" class="st0" d="M42.2,18H29"/>
			<path id="Shape_2450_2_" class="st0" d="M42.2,6H29"/>
			<path id="Shape_2449_2_" class="st0" d="M44.5,2H29"/>
		</g>
	</g>
</g>
<path id="Rectangle-path_51_1_" class="st0" d="M17.5,9.5v13c0,0.6-0.4,1-1,1h-15c-0.6,0-1-0.4-1-1v-21c0-0.6,0.4-1,1-1h15
	c0.6,0,1,0.4,1,1V4"/>
<path id="Oval_332" class="st0" d="M17.5,9.5C18.9,9.5,20,8.4,20,7s-1.1-2.5-2.5-2.5C16.1,4.5,15,5.6,15,7S16.1,9.5,17.5,9.5z"/>
<path id="Shape_2846" class="st0" d="M20.5,7H23c0.8,0,1.5,0.7,1.5,1.5v2c0,0.8,0.7,1.5,1.5,1.5h2.5"/>
</svg>
