<?xml version="1.0" encoding="utf-8"?>
<!-- Generator: Adobe Illustrator 22.1.0, SVG Export Plug-In . SVG Version: 6.00 Build 0)  -->
<svg version="1.1" id="Calque_1" xmlns="http://www.w3.org/2000/svg" xmlns:xlink="http://www.w3.org/1999/xlink" x="0px" y="0px"
	 width="100px" height="152px" viewBox="0 0 100 152" style="enable-background:new 0 0 100 152;" xml:space="preserve">
<style type="text/css">
	.st0{fill:#BCBEC0;}
	.st1{fill:#939598;}
	.st2{fill:#F1F2F2;}
	.st3{fill:#53A2D3;}
	.st4{opacity:0.1;}
	.st5{fill:#CCEFFF;}
	.st6{fill:#E6E7E8;}
	.st7{fill:#6D6E71;}
	.st8{fill:#3C3B3D;}
</style>
<g id="Astronaut">
	<g id="Astronaut_2_">
		<g id="Astronaut_1_">
			<g>
				<path class="st0" d="M72.8,33.2c-0.7,0-1.2-0.6-1.2-1.2v-8.9h-6c-0.7,0-1.2-0.6-1.2-1.2c0-0.7,0.6-1.2,1.2-1.2h7.2
					c0.7,0,1.2,0.6,1.2,1.2v10.1C74,32.6,73.4,33.2,72.8,33.2z"/>
			</g>
			<path class="st1" d="M81.5,101.6c0,1.7-1.4,3.1-3.1,3.1H21.5c-1.7,0-3.1-1.4-3.1-3.1V32.4c0-1.7,1.4-3.1,3.1-3.1h56.8
				c1.7,0,3.1,1.4,3.1,3.1V101.6z"/>
			<path class="st2" d="M66.8,16.8c0,9.3-7.5,16.8-16.8,16.8c-9.3,0-16.8-7.5-16.8-16.8C33.2,7.5,40.7,0,50,0
				C59.2,0,66.8,7.5,66.8,16.8z"/>
			<rect x="33.2" y="16.8" class="st2" width="33.6" height="19.3"/>
			<path class="st3" d="M64.7,17.3c0,6.7-6.6,12-14.8,12s-14.8-5.4-14.8-12c0-6.7,6.6-12,14.8-12S64.7,10.6,64.7,17.3z"/>
			<path class="st4" d="M54.8,5.9c1.3,1.8,2.1,3.9,2.1,6.2c0,6.7-6.6,12-14.8,12c-1.7,0-3.3-0.2-4.8-0.6c2.6,3.5,7.3,5.9,12.7,5.9
				c8.2,0,14.8-5.4,14.8-12C64.7,12,60.6,7.5,54.8,5.9z"/>
			<path class="st5" d="M45.7,13.2c0,2-1.6,3.6-3.6,3.6c-2,0-3.6-1.6-3.6-3.6c0-2,1.6-3.6,3.6-3.6C44.1,9.6,45.7,11.2,45.7,13.2z"/>
			<path class="st5" d="M44.4,21.1c0,1-0.8,1.8-1.8,1.8c-1,0-1.8-0.8-1.8-1.8c0-1,0.8-1.8,1.8-1.8C43.6,19.2,44.4,20,44.4,21.1z"/>
			<rect x="5.2" y="36.1" class="st6" width="30" height="11.6"/>
			<path class="st6" d="M11.6,15.2c0,3.2-2.6,5.8-5.8,5.8C2.6,21,0,18.4,0,15.2C0,12,2.6,9.4,5.8,9.4C9,9.4,11.6,12,11.6,15.2z"/>
			<path class="st6" d="M13.2,17c0,0.9-0.7,1.6-1.6,1.6S10,17.9,10,17s0.7-1.6,1.6-1.6S13.2,16.1,13.2,17z"/>
			<rect x="71.9" y="36.1" class="st6" width="23.6" height="11.6"/>
			<path class="st6" d="M100,68.7c0-3.2-2.6-5.8-5.8-5.8c-3.2,0-5.8,2.6-5.8,5.8c0,3.2,2.6,5.8,5.8,5.8C97.4,74.5,100,71.9,100,68.7
				z"/>
			<path class="st6" d="M90,67c0-0.9-0.7-1.6-1.6-1.6s-1.6,0.7-1.6,1.6c0,0.9,0.7,1.6,1.6,1.6S90,67.9,90,67z"/>
			<rect x="24.5" y="89.8" class="st6" width="18.1" height="59.5"/>
			<rect x="57.4" y="89.8" class="st6" width="18.1" height="59.5"/>
			<g>
				<path class="st0" d="M33.5,139.3c-5.8,0-10.6,4.7-10.6,10.6h21.2C44.1,144.1,39.4,139.3,33.5,139.3z"/>
			</g>
			<rect x="22.9" y="149.9" class="st7" width="21.2" height="2.1"/>
			<g>
				<path class="st0" d="M66.4,139.3c-5.8,0-10.6,4.7-10.6,10.6H77C77,144.1,72.3,139.3,66.4,139.3z"/>
			</g>
			<rect x="55.8" y="149.9" class="st7" width="21.2" height="2.1"/>
			<path class="st6" d="M100,51.6V37.4c0-0.7-0.6-1.2-1.2-1.2h-9.1c-0.7,0-1.2,0.6-1.2,1.2v14.3h0v17h1.2h9.1h1.2L100,51.6L100,51.6
				z"/>
			<path class="st6" d="M0,32.2v14.3c0,0.7,0.6,1.2,1.2,1.2h9.1c0.7,0,1.2-0.6,1.2-1.2V32.2h0v-17h-1.2H1.2H0L0,32.2L0,32.2z"/>
			<path class="st6" d="M75.5,90.9c0,1.7-1.4,3.1-3.1,3.1H27.5c-1.7,0-3.1-1.4-3.1-3.1V39.2c0-1.7,1.4-3.1,3.1-3.1h44.8
				c1.7,0,3.1,1.4,3.1,3.1V90.9z"/>
			<rect x="49" y="36.1" class="st0" width="1.9" height="57.9"/>
			<rect x="24.5" y="82.1" class="st8" width="51" height="5.2"/>
			<rect x="45" y="80" class="st8" width="9.9" height="9.3"/>
			<rect x="48.2" y="83.1" class="st6" width="3.4" height="3.2"/>
		</g>
	</g>
</g>
</svg>
