<?xml version="1.0" encoding="utf-8"?>
<!-- Generator: Adobe Illustrator 23.0.0, SVG Export Plug-In . SVG Version: 6.00 Build 0)  -->
<svg version="1.1" id="Calque_1" xmlns="http://www.w3.org/2000/svg" xmlns:xlink="http://www.w3.org/1999/xlink" x="0px" y="0px"
	 viewBox="0 0 24 24" style="enable-background:new 0 0 24 24;" xml:space="preserve">
<style type="text/css">
	.st0{fill:#EF6B30;}
</style>
<title>messages-bubble-square</title>
<path class="st0" d="M21.5,2h-19C1.7,2,1,2.7,1,3.5v13C1,17.3,1.7,18,2.5,18h4.3C6.9,18,7,18.1,7,18.2v3.2C7,21.8,7.2,22,7.5,22
	c0.1,0,0.3-0.1,0.4-0.1l3.8-3.8c0,0,0.1-0.1,0.2-0.1h9.7c0.8,0,1.5-0.7,1.5-1.5v-13C23,2.7,22.3,2,21.5,2z"/>
</svg>
