<?xml version="1.0" encoding="utf-8"?>
<!-- Generator: Adobe Illustrator 23.0.0, SVG Export Plug-In . SVG Version: 6.00 Build 0)  -->
<svg version="1.1" id="Calque_1" xmlns="http://www.w3.org/2000/svg" xmlns:xlink="http://www.w3.org/1999/xlink" x="0px" y="0px"
	 viewBox="0 0 24 24" style="enable-background:new 0 0 24 24;" xml:space="preserve">
<style type="text/css">
	.st0{fill:#FFDD49;}
</style>
<title>book-close-2</title>
<path class="st0" d="M20.1,4c-0.2,0-0.4-0.3-0.4-0.5V2c0-1.1-0.9-2-2-2H5.2c-1.7,0-3,1.3-3,3v18c0,1.7,1.3,3,3,3h14.5
	c1.1,0,2-0.9,2-2V6C21.8,5,21.1,4.2,20.1,4z M5.2,2h12.2c0.1,0,0.2,0.1,0.2,0.2v1.5c0,0.1-0.1,0.2-0.2,0.2H5.2c-0.6,0-1-0.4-1-1
	S4.7,2,5.2,2z"/>
</svg>
