<?xml version="1.0" encoding="utf-8"?>
<!-- Generator: Adobe Illustrator 22.1.0, SVG Export Plug-In . SVG Version: 6.00 Build 0)  -->
<svg version="1.1" id="Layer_1" xmlns="http://www.w3.org/2000/svg" xmlns:xlink="http://www.w3.org/1999/xlink" x="0px" y="0px"
	 width="800px" height="800px" viewBox="0 0 800 800" style="enable-background:new 0 0 800 800;" xml:space="preserve">
<style type="text/css">
	.st0{fill:url(#SVGID_1_);}
	.st1{fill:#F6E08A;}
	.st2{fill:#FFF7D7;}
	.st3{fill:#FFF0A3;}
	.st4{fill:#C9B866;}
	.st5{fill:#E3D17D;}
	.st6{fill:#B29E47;}
	.st7{fill:#FFFFFF;stroke:#FFFFFF;stroke-miterlimit:10;}
	.st8{fill:#FFFFFF;}
	.st9{fill:none;stroke:#FFFFFF;stroke-miterlimit:10;}
	.st10{fill:#27AAE1;}
	.st11{fill:#55C9F2;}
	.st12{fill:#2783E1;}
	.st13{fill:#FF9400;}
	.st14{fill:#FFAB00;}
	.st15{fill:#DB7700;}
	.st16{opacity:0.52;fill:#FFF0A3;}
	.st17{fill:#FFC969;}
	.st18{fill:#F4AE3D;}
	.st19{fill:#ED4F43;}
	.st20{fill:#F4716E;}
	.st21{fill:#DB2823;}
</style>
<g>
	<radialGradient id="SVGID_1_" cx="400.8882" cy="401.0327" r="402.9013" gradientUnits="userSpaceOnUse">
		<stop  offset="0" style="stop-color:#003C58"/>
		<stop  offset="1" style="stop-color:#011722"/>
	</radialGradient>
	<rect x="-2" y="-1.9" class="st0" width="805.8" height="805.8"/>
	<g>
		<path class="st1" d="M467.9,144.1c-0.2,2.8-0.1,5.6,0.4,8.3c0.2,1.3,0.5,2.7,0.9,4c3.6,12.7,11,24.3,21.6,31.6
			c1.2,0.8,2.4,1.6,3.7,2.3c11.2,9.3,26.3,12.8,40.6,11.1c1.6-0.2,3.2-0.5,4.7-0.8c9-0.8,17.3-3.9,24.2-9.1c1.2-0.9,2.3-1.8,3.3-2.7
			c3.9-3.2,7.3-6.7,10.1-10.5c1-1.3,1.8-2.6,2.7-3.9c2.6-4.4,4.5-9.1,5.8-14c0.4-1.6,0.8-3.2,1.1-4.9c1.1-4.6,1.7-9.4,1.7-14.1
			c0-1.6,0-3.1-0.2-4.7c0-1.6-0.1-3.2-0.3-4.8c-0.2-1.6-0.5-3.2-0.9-4.7c-4-15.5-14-29.1-28.1-36.3c-1.1-0.6-2.2-1.1-3.3-1.6
			c-6.7-3.1-14.2-4.7-21.8-4.9c-1.3-0.1-2.7-0.2-4-0.3c-1.3,0-2.7-0.1-4,0c-1.6,0-3.2,0.1-4.8,0.3c-6.6,0.6-13.1,2.3-19.1,5.1
			c-1.5,0.7-2.9,1.5-4.4,2.3c-12,5.8-21.3,16.3-25,29.1c-0.5,1.6-0.8,3.2-1.1,4.9c-0.7,4.6-1.6,9.2-3.4,13.9
			C468.4,141.2,468.1,142.7,467.9,144.1z"/>
		<path class="st2" d="M588.7,136.8c0-1.6-0.1-3.2-0.3-4.8c-0.2-1.6-0.5-3.2-0.9-4.7c-4-15.5-14-29.1-28.1-36.3
			c-1.1-0.6-2.2-1.1-3.3-1.6c-6.7-3.1-14.2-4.7-21.8-4.9c-1.3-0.1-2.7-0.2-4-0.3c-1.3,0-2.7-0.1-4,0c-1.6,0-3.2,0.1-4.8,0.3
			c-6.6,0.6-13.1,2.3-19.1,5.1c-1.5,0.7-2.9,1.5-4.4,2.3c-5.2,2.5-9.9,6-13.9,10.2c3.5-3.2,7.4-5.9,11.8-8c1.4-0.8,2.9-1.6,4.4-2.3
			c5.9-2.8,12.5-4.5,19-5.1c1.6-0.2,3.2-0.3,4.8-0.3c1.3,0,2.7,0,4,0c1.3,0,2.7,0.1,4,0.3c7.6,0.2,15,1.8,21.8,4.9
			c1.1,0.5,2.2,1.1,3.3,1.6c14.1,7.2,24.1,20.9,28.1,36.3c0.4,1.5,0.7,3.1,0.9,4.7c0.2,1.6,0.3,3.2,0.3,4.8c0.1,1.6,0.2,3.1,0.2,4.7
			c0,4.7-0.6,9.4-1.7,14.1c-0.3,1.6-0.6,3.3-1.1,4.9c-1.3,4.8-3.2,9.5-5.8,14c-0.8,1.3-1.7,2.7-2.7,3.9c-1.3,1.8-2.8,3.5-4.3,5.1
			c2.4-2.3,4.5-4.7,6.5-7.2c1-1.3,1.8-2.6,2.7-3.9c2.6-4.4,4.5-9.1,5.8-14c0.4-1.6,0.8-3.2,1.1-4.9c1.1-4.6,1.7-9.4,1.7-14.1
			C588.9,139.9,588.8,138.4,588.7,136.8z"/>
		<path class="st3" d="M491.8,137.8c1.1,4.7,2.9,9.7,6.6,13c0.8,0.8,1.7,1.5,2.7,2.1c3.9,2.1,8.1,3.5,12.4,3.9
			c1.4,0.1,2.8,0.2,4.3,0.1c4-0.4,8.1-1.8,11.7-3.9c1.2-0.7,2.3-1.5,3.4-2.4c5.1-4.5,8.8-10.9,7.8-17.4c-0.2-1.3-0.6-2.6-1.2-3.9
			c-4-8-11.5-16.3-20.6-16.1c-1.3,0-2.6,0.2-4.1,0.6c-10,2.8-22.3,7.8-23.4,19.8C491.3,134.9,491.5,136.3,491.8,137.8z"/>
		<path class="st4" d="M498.3,101.5c0.4,1.7,1.1,3.5,2.4,4.7c0.3,0.3,0.6,0.5,1,0.7c1.4,0.8,2.9,1.3,4.5,1.4c0.5,0,1,0.1,1.5,0
			c1.5-0.2,2.9-0.6,4.2-1.4c0.4-0.2,0.8-0.5,1.2-0.9c1.8-1.6,3.2-4,2.8-6.3c-0.1-0.5-0.2-0.9-0.4-1.4c-1.4-2.9-4.1-5.9-7.4-5.8
			c-0.5,0-1,0.1-1.5,0.2c-3.6,1-8.1,2.8-8.5,7.2C498.2,100.5,498.2,101,498.3,101.5z"/>
		<path class="st4" d="M486.4,109.9c0.2,0.9,0.6,2,1.3,2.6c0.2,0.2,0.3,0.3,0.6,0.4c0.8,0.4,1.7,0.7,2.5,0.8c0.3,0,0.6,0,0.9,0
			c0.8-0.1,1.7-0.4,2.4-0.8c0.2-0.1,0.5-0.3,0.7-0.5c1-0.9,1.8-2.2,1.6-3.6c0-0.3-0.1-0.5-0.2-0.8c-0.8-1.6-2.3-3.3-4.2-3.3
			c-0.3,0-0.5,0-0.8,0.1c-2,0.6-4.5,1.6-4.8,4C486.3,109.3,486.3,109.6,486.4,109.9z"/>
		<g>
			<path class="st5" d="M544.6,126.1c0.5,2,1.3,4.2,2.9,5.6c0.3,0.3,0.7,0.6,1.2,0.9c1.7,0.9,3.5,1.5,5.4,1.7c0.6,0.1,1.2,0.1,1.9,0
				c1.7-0.2,3.5-0.8,5.1-1.7c0.5-0.3,1-0.6,1.5-1c2.2-1.9,3.8-4.7,3.4-7.5c-0.1-0.6-0.3-1.1-0.5-1.7c-1.7-3.4-5-7-8.9-7
				c-0.6,0-1.1,0.1-1.8,0.3c-4.3,1.2-9.6,3.4-10.1,8.6C544.4,124.8,544.5,125.4,544.6,126.1z"/>
			<path class="st4" d="M548.3,131.5c0.6,0.1,1.2,0.1,1.9,0c1.7-0.2,3.5-0.8,5.1-1.7c0.5-0.3,1-0.6,1.5-1c2.2-1.9,3.8-4.7,3.4-7.5
				c-0.1-0.6-0.3-1.1-0.5-1.7c-0.7-1.5-1.8-3-3-4.2c3.8,0.1,7,3.6,8.7,7c0.3,0.6,0.4,1.1,0.5,1.7c0.4,2.8-1.2,5.6-3.4,7.5
				c-0.5,0.4-0.9,0.7-1.5,1c-1.5,0.9-3.3,1.5-5.1,1.7c-0.6,0-1.2,0-1.9,0c-1.9-0.2-3.7-0.8-5.4-1.7c-0.4-0.3-0.8-0.6-1.2-0.9
				c-0.1-0.1-0.2-0.2-0.4-0.4C547.5,131.4,547.9,131.5,548.3,131.5z"/>
			<path class="st6" d="M552.6,133.9c0.6,0.1,1.2,0.1,1.9,0c1.7-0.2,3.5-0.8,5.1-1.7c0.5-0.3,1-0.6,1.5-1c2.2-1.9,3.8-4.7,3.4-7.5
				c-0.1-0.6-0.3-1.1-0.5-1.7c-1.4-2.7-3.7-5.5-6.5-6.6c3.5,0.5,6.3,3.8,7.9,6.9c0.3,0.6,0.4,1.1,0.5,1.7c0.4,2.8-1.2,5.6-3.4,7.5
				c-0.5,0.4-0.9,0.7-1.5,1c-1.5,0.9-3.3,1.5-5.1,1.7c-0.6,0-1.2,0-1.9,0c-0.9-0.1-1.7-0.3-2.6-0.5
				C551.8,133.8,552.2,133.9,552.6,133.9z"/>
			<path class="st3" d="M554.5,115.6c0.1,0,0.2-0.1,0.3-0.1c-4.1,1.3-8.7,3.5-9.1,8.3c0,0.6,0.1,1.2,0.2,1.8c0.5,2,1.3,4.2,2.9,5.6
				c0.4,0.3,0.7,0.6,1.2,0.9c1.7,0.9,3.5,1.5,5.3,1.7c0.6,0.1,1.2,0.1,1.9,0c0.4,0,0.9-0.1,1.3-0.2c-0.9,0.3-1.8,0.5-2.7,0.6
				c-0.6,0-1.2,0-1.9,0c-1.9-0.2-3.7-0.8-5.4-1.7c-0.4-0.3-0.8-0.6-1.2-0.9c-1.6-1.4-2.4-3.6-2.9-5.6c-0.1-0.6-0.2-1.2-0.2-1.8
				C544.9,119,550.2,116.8,554.5,115.6z"/>
		</g>
		<g>
			<path class="st5" d="M544.5,173.4c0.2,1,0.6,2,1.4,2.7c0.2,0.2,0.3,0.3,0.5,0.4c0.8,0.4,1.7,0.7,2.5,0.8c0.3,0,0.6,0,0.9,0
				c0.8-0.1,1.7-0.4,2.4-0.8c0.2-0.2,0.5-0.3,0.7-0.5c1-0.9,1.8-2.2,1.6-3.6c0-0.3-0.1-0.5-0.2-0.8c-0.8-1.6-2.3-3.3-4.2-3.3
				c-0.3,0-0.5,0-0.8,0.1c-2,0.6-4.5,1.6-4.8,4C544.4,172.8,544.4,173.1,544.5,173.4z"/>
			<path class="st4" d="M546.2,175.9c0.3,0,0.6,0,0.9,0c0.8-0.1,1.7-0.4,2.4-0.8c0.2-0.1,0.5-0.3,0.7-0.5c1-0.9,1.8-2.2,1.6-3.6
				c0-0.3-0.1-0.5-0.2-0.8c-0.3-0.7-0.8-1.4-1.4-2c1.8,0,3.3,1.7,4.1,3.3c0.1,0.3,0.2,0.5,0.2,0.8c0.2,1.3-0.5,2.6-1.6,3.6
				c-0.2,0.2-0.4,0.3-0.7,0.5c-0.7,0.4-1.6,0.7-2.4,0.8c-0.3,0-0.6,0-0.9,0c-0.9-0.1-1.7-0.4-2.5-0.8c-0.2-0.1-0.4-0.3-0.5-0.4
				c-0.1-0.1-0.1-0.1-0.2-0.2C545.9,175.9,546,175.9,546.2,175.9z"/>
			<path class="st6" d="M548.3,177.1c0.3,0,0.6,0,0.9,0c0.8-0.1,1.7-0.4,2.4-0.8c0.2-0.1,0.5-0.3,0.7-0.5c1-0.9,1.8-2.2,1.6-3.6
				c0-0.3-0.1-0.5-0.2-0.8c-0.6-1.3-1.7-2.6-3.1-3.1c1.6,0.2,3,1.8,3.7,3.3c0.1,0.3,0.2,0.5,0.2,0.8c0.2,1.3-0.5,2.6-1.6,3.6
				c-0.2,0.2-0.4,0.3-0.7,0.5c-0.7,0.4-1.6,0.7-2.4,0.8c-0.3,0-0.6,0-0.9,0c-0.4,0-0.8-0.1-1.2-0.2
				C547.9,177,548.1,177.1,548.3,177.1z"/>
			<path class="st3" d="M549.2,168.5c0.1,0,0.1,0,0.2,0c-1.9,0.6-4.1,1.6-4.3,3.9c0,0.3,0,0.6,0.1,0.9c0.2,1,0.6,2,1.4,2.6
				c0.2,0.2,0.3,0.3,0.5,0.4c0.8,0.4,1.7,0.7,2.5,0.8c0.3,0,0.6,0,0.9,0c0.2,0,0.4-0.1,0.6-0.1c-0.4,0.1-0.8,0.2-1.2,0.3
				c-0.3,0-0.6,0-0.9,0c-0.9-0.1-1.7-0.4-2.5-0.8c-0.2-0.1-0.4-0.3-0.5-0.4c-0.8-0.7-1.1-1.7-1.4-2.7c-0.1-0.3-0.1-0.6-0.1-0.9
				C544.6,170.1,547.1,169,549.2,168.5z"/>
		</g>
		<g>
			<path class="st5" d="M569.3,172.9c0.2,0.8,0.5,1.7,1.2,2.3c0.1,0.1,0.3,0.3,0.5,0.4c0.7,0.4,1.4,0.6,2.2,0.7c0.3,0,0.5,0,0.7,0
				c0.7-0.1,1.4-0.3,2-0.7c0.2-0.1,0.4-0.3,0.6-0.4c0.9-0.8,1.5-1.9,1.4-3c0-0.2-0.1-0.5-0.2-0.7c-0.7-1.4-2-2.8-3.6-2.8
				c-0.2,0-0.5,0-0.7,0.1c-1.7,0.5-3.9,1.4-4.1,3.5C569.2,172.4,569.2,172.7,569.3,172.9z"/>
			<path class="st4" d="M570.8,175.1c0.2,0,0.5,0,0.7,0c0.7-0.1,1.4-0.3,2-0.7c0.2-0.1,0.4-0.3,0.6-0.4c0.9-0.8,1.5-1.9,1.4-3
				c0-0.2-0.1-0.5-0.2-0.7c-0.3-0.6-0.7-1.2-1.2-1.7c1.5,0,2.8,1.4,3.5,2.8c0.1,0.2,0.2,0.5,0.2,0.7c0.2,1.1-0.5,2.3-1.4,3
				c-0.2,0.2-0.4,0.3-0.6,0.4c-0.6,0.4-1.3,0.6-2,0.7c-0.2,0-0.5,0-0.7,0c-0.7-0.1-1.5-0.3-2.2-0.7c-0.2-0.1-0.3-0.2-0.5-0.4
				c-0.1,0-0.1-0.1-0.1-0.1C570.5,175.1,570.6,175.1,570.8,175.1z"/>
			<path class="st6" d="M572.5,176.1c0.2,0,0.5,0,0.7,0c0.7-0.1,1.4-0.3,2-0.7c0.2-0.1,0.4-0.3,0.6-0.4c0.9-0.8,1.5-1.9,1.4-3
				c0-0.2-0.1-0.5-0.2-0.7c-0.5-1.1-1.5-2.2-2.6-2.6c1.4,0.2,2.5,1.5,3.2,2.8c0.1,0.2,0.2,0.5,0.2,0.7c0.2,1.1-0.5,2.3-1.4,3
				c-0.2,0.2-0.4,0.3-0.6,0.4c-0.6,0.4-1.3,0.6-2,0.7c-0.2,0-0.5,0-0.7,0c-0.4,0-0.7-0.1-1-0.2C572.2,176,572.4,176.1,572.5,176.1z"
				/>
			<path class="st3" d="M573.3,168.7c0,0,0.1,0,0.1,0c-1.6,0.5-3.5,1.4-3.7,3.3c0,0.2,0,0.5,0.1,0.7c0.2,0.8,0.5,1.7,1.2,2.3
				c0.1,0.1,0.3,0.3,0.5,0.4c0.7,0.4,1.4,0.6,2.2,0.7c0.2,0,0.5,0,0.7,0c0.2,0,0.3,0,0.5-0.1c-0.4,0.1-0.7,0.2-1.1,0.2
				c-0.2,0-0.5,0-0.7,0c-0.7-0.1-1.5-0.3-2.2-0.7c-0.2-0.1-0.3-0.2-0.5-0.4c-0.6-0.6-1-1.5-1.2-2.3c-0.1-0.3-0.1-0.5-0.1-0.7
				C569.4,170.1,571.6,169.2,573.3,168.7z"/>
		</g>
		<g>
			<path class="st5" d="M495.4,173.9c0.7,2,1.9,4.2,4.3,5.6c0.5,0.3,1.1,0.6,1.8,0.9c2.5,0.9,5.3,1.5,8.1,1.7c0.9,0.1,1.9,0.1,2.8,0
				c2.6-0.2,5.3-0.8,7.7-1.7c0.8-0.3,1.5-0.6,2.2-1c3.3-1.9,5.8-4.7,5.1-7.5c-0.1-0.6-0.4-1.1-0.8-1.7c-2.6-3.4-7.5-7.1-13.5-7
				c-0.9,0-1.7,0.1-2.7,0.3c-6.5,1.2-14.6,3.4-15.4,8.6C495.1,172.7,495.2,173.3,495.4,173.9z"/>
			<path class="st4" d="M501,179.4c0.9,0.1,1.9,0.1,2.8,0c2.6-0.2,5.3-0.8,7.7-1.7c0.8-0.3,1.5-0.6,2.2-1c3.3-1.9,5.8-4.7,5.1-7.5
				c-0.1-0.6-0.4-1.1-0.8-1.7c-1.1-1.5-2.6-3-4.5-4.2c5.8,0.1,10.5,3.6,13.1,7c0.4,0.6,0.7,1.1,0.8,1.7c0.7,2.8-1.8,5.6-5.1,7.5
				c-0.7,0.4-1.4,0.7-2.2,1c-2.3,0.9-5,1.5-7.7,1.7c-0.9,0-1.9,0-2.8,0c-2.8-0.2-5.6-0.8-8.1-1.7c-0.6-0.3-1.2-0.6-1.8-0.9
				c-0.2-0.1-0.4-0.2-0.5-0.4C499.8,179.3,500.4,179.3,501,179.4z"/>
			<path class="st6" d="M507.6,181.8c0.9,0.1,1.9,0.1,2.8,0c2.6-0.2,5.3-0.8,7.7-1.7c0.8-0.3,1.5-0.6,2.2-1c3.3-1.9,5.8-4.7,5.1-7.5
				c-0.1-0.6-0.4-1.1-0.8-1.7c-2.1-2.7-5.5-5.5-9.9-6.6c5.3,0.5,9.5,3.8,11.9,6.9c0.4,0.6,0.7,1.1,0.8,1.7c0.7,2.8-1.8,5.6-5.1,7.5
				c-0.7,0.4-1.4,0.7-2.2,1c-2.3,0.9-5,1.5-7.7,1.7c-0.9,0-1.9,0-2.8,0c-1.3-0.1-2.6-0.3-3.9-0.5
				C506.3,181.7,506.9,181.7,507.6,181.8z"/>
			<path class="st3" d="M510.4,163.5c0.2,0,0.3-0.1,0.5-0.1c-6.2,1.3-13.1,3.5-13.8,8.3c0,0.6,0.1,1.2,0.3,1.8
				c0.7,2,1.9,4.2,4.3,5.6c0.5,0.3,1.1,0.6,1.8,0.9c2.5,0.9,5.3,1.5,8.1,1.7c0.9,0.1,1.9,0.1,2.8,0c0.7,0,1.3-0.1,2-0.2
				c-1.3,0.3-2.7,0.5-4,0.6c-0.9,0-1.9,0-2.8,0c-2.8-0.2-5.6-0.8-8.1-1.7c-0.6-0.3-1.2-0.6-1.8-0.9c-2.4-1.4-3.6-3.6-4.3-5.6
				c-0.2-0.6-0.3-1.2-0.3-1.8C495.8,166.9,503.9,164.7,510.4,163.5z"/>
		</g>
		<g>
			<path class="st5" d="M474.9,140c-1,0.9-2,2-2.2,3.7c-0.1,0.4-0.1,0.8-0.1,1.2c0,1.6,0.3,3.3,0.8,4.9c0.2,0.5,0.4,1.1,0.6,1.6
				c0.7,1.5,1.6,2.8,2.6,4c0.3,0.4,0.7,0.7,1.1,1c1.8,1.5,3.9,2.2,5.4,1.2c0.3-0.2,0.6-0.5,0.8-0.8c1.4-2.2,2.4-5.8,1-9.2
				c-0.2-0.5-0.4-1-0.7-1.4c-2.1-3.4-5.1-7.5-8.2-6.8C475.5,139.5,475.2,139.7,474.9,140z"/>
			<path class="st4" d="M473,144.3c0.2,0.5,0.4,1.1,0.6,1.6c0.7,1.5,1.6,2.8,2.6,4c0.3,0.4,0.7,0.7,1.1,1c1.8,1.5,3.9,2.2,5.4,1.2
				c0.3-0.2,0.6-0.5,0.8-0.8c0.6-1,1.1-2.1,1.4-3.5c1.2,3.3,0.3,6.8-1.1,8.9c-0.2,0.4-0.5,0.6-0.8,0.8c-1.4,1-3.6,0.2-5.4-1.2
				c-0.4-0.3-0.7-0.7-1.1-1c-1-1.1-1.9-2.5-2.6-4c-0.2-0.5-0.4-1.1-0.6-1.6c-0.5-1.6-0.8-3.3-0.8-4.9c0-0.4,0-0.8,0.1-1.2
				c0-0.1,0.1-0.3,0.1-0.4C472.8,143.6,472.9,144,473,144.3z"/>
			<path class="st6" d="M473,148.5c0.2,0.5,0.4,1.1,0.6,1.6c0.7,1.4,1.6,2.8,2.6,4c0.3,0.4,0.7,0.7,1.1,1c1.8,1.5,3.9,2.2,5.4,1.2
				c0.3-0.2,0.5-0.5,0.8-0.8c1.1-1.8,1.9-4.3,1.6-7c0.9,3.1,0,6.2-1.3,8.3c-0.2,0.4-0.5,0.6-0.8,0.8c-1.4,1-3.6,0.2-5.4-1.2
				c-0.4-0.3-0.7-0.7-1.1-1c-1-1.1-1.9-2.5-2.6-4c-0.2-0.5-0.4-1.1-0.6-1.6c-0.2-0.8-0.4-1.5-0.6-2.3
				C472.8,147.8,472.9,148.2,473,148.5z"/>
			<path class="st3" d="M484,146.2c0.1,0.1,0.1,0.2,0.2,0.3c-2.1-3.2-4.8-6.7-7.7-6c-0.3,0.1-0.7,0.3-1,0.6c-1,0.9-2,2-2.2,3.7
				c-0.1,0.4-0.1,0.8-0.1,1.2c0,1.6,0.3,3.3,0.8,5c0.2,0.5,0.4,1.1,0.6,1.6c0.2,0.4,0.4,0.7,0.5,1.1c-0.5-0.7-0.9-1.4-1.2-2.2
				c-0.2-0.5-0.4-1.1-0.6-1.6c-0.5-1.6-0.8-3.3-0.8-4.9c0-0.4,0-0.8,0.1-1.2c0.3-1.7,1.3-2.8,2.2-3.7c0.3-0.3,0.6-0.4,1-0.6
				C478.9,138.7,481.9,142.8,484,146.2z"/>
		</g>
		<g>
			<g>
				<path class="st6" d="M532.8,168.3c0,0.9,0.7,1.6,1.6,1.6c0.9,0,1.6-0.7,1.6-1.6s-0.7-1.6-1.6-1.6
					C533.6,166.7,532.8,167.5,532.8,168.3z"/>
				<path class="st6" d="M530.4,166.6c0,0.4,0.3,0.7,0.7,0.7c0.4,0,0.7-0.3,0.7-0.7c0-0.4-0.3-0.7-0.7-0.7
					C530.7,165.9,530.4,166.2,530.4,166.6z"/>
				<path class="st6" d="M539.3,166.7c0,0.4,0.3,0.7,0.7,0.7c0.4,0,0.7-0.3,0.7-0.7c0-0.4-0.3-0.7-0.7-0.7
					C539.7,166,539.3,166.3,539.3,166.7z"/>
				<path class="st6" d="M530.2,169.5c0,0.5,0.4,0.8,0.8,0.8c0.5,0,0.8-0.4,0.8-0.8c0-0.5-0.4-0.8-0.8-0.8
					C530.6,168.7,530.2,169,530.2,169.5z"/>
			</g>
		</g>
		<g>
			<g>
				<path class="st6" d="M543.7,96.3c-0.7,1.5-0.1,3.2,1.4,3.9c1.5,0.7,3.2,0.1,3.9-1.4c0.7-1.5,0.1-3.2-1.4-3.9
					C546.1,94.2,544.3,94.9,543.7,96.3z"/>
				<path class="st6" d="M541,91.5c-0.3,0.7,0,1.4,0.6,1.7c0.7,0.3,1.4,0,1.7-0.6c0.3-0.7,0-1.4-0.6-1.7
					C542.1,90.6,541.3,90.9,541,91.5z"/>
				<path class="st6" d="M555.8,98.8c-0.3,0.7,0,1.4,0.6,1.7c0.7,0.3,1.4,0,1.7-0.6c0.3-0.7,0-1.4-0.6-1.7
					C556.9,97.8,556.1,98.1,555.8,98.8z"/>
				<path class="st6" d="M538.3,96.2c-0.4,0.8,0,1.7,0.7,2c0.8,0.4,1.7,0,2-0.7c0.4-0.8,0-1.7-0.7-2
					C539.5,95.1,538.6,95.4,538.3,96.2z"/>
			</g>
		</g>
		<g>
			<g>
				<path class="st5" d="M584.3,138.8c-1.3-0.7-2.8-1.2-4.7-0.9c-0.4,0.1-0.8,0.2-1.3,0.3c-1.7,0.7-3.3,1.6-4.8,2.7
					c-0.5,0.4-1,0.8-1.4,1.2c-1.2,1.3-2.3,2.8-3.1,4.3c-0.3,0.5-0.5,1-0.7,1.5c-0.8,2.5-0.8,4.9,0.8,6.1c0.3,0.2,0.7,0.4,1.2,0.5
					c2.8,0.6,6.9,0.2,9.9-2.5c0.4-0.4,0.8-0.8,1.2-1.3c2.8-3.5,5.9-8.2,3.9-11.1C585,139.2,584.7,139,584.3,138.8z"/>
				<path class="st4" d="M579.1,138.5c-0.5,0.4-1,0.8-1.4,1.2c-1.2,1.3-2.3,2.8-3.1,4.3c-0.3,0.5-0.5,1-0.7,1.5
					c-0.8,2.5-0.8,4.9,0.8,6.1c0.3,0.2,0.7,0.4,1.1,0.5c1.2,0.2,2.7,0.3,4.1,0.1c-3,2.5-6.9,2.9-9.7,2.3c-0.5-0.1-0.8-0.3-1.2-0.5
					c-1.6-1.1-1.6-3.6-0.8-6.1c0.2-0.5,0.4-1,0.7-1.5c0.8-1.5,1.9-3,3.1-4.3c0.5-0.4,0.9-0.8,1.4-1.2c1.5-1.2,3.1-2.1,4.8-2.7
					c0.4-0.2,0.9-0.3,1.3-0.3c0.1,0,0.3,0,0.4-0.1C579.7,138,579.4,138.3,579.1,138.5z"/>
				<path class="st6" d="M574.7,140.2c-0.5,0.4-1,0.8-1.4,1.2c-1.2,1.3-2.3,2.8-3.1,4.3c-0.3,0.5-0.5,1-0.7,1.5
					c-0.8,2.5-0.8,4.9,0.8,6.1c0.3,0.2,0.7,0.4,1.1,0.5c2.3,0.5,5.2,0.3,7.9-1.1c-2.9,2.1-6.5,2.4-9.1,1.8c-0.5-0.1-0.8-0.3-1.2-0.5
					c-1.6-1.1-1.6-3.6-0.8-6.1c0.2-0.5,0.4-1,0.7-1.5c0.8-1.5,1.9-3,3.1-4.3c0.5-0.4,0.9-0.8,1.4-1.2c0.7-0.5,1.4-1,2.2-1.5
					C575.4,139.7,575,139.9,574.7,140.2z"/>
				<path class="st3" d="M581.4,150.7c-0.1,0.1-0.1,0.2-0.2,0.3c2.6-3.4,5.1-7.6,3.3-10.3c-0.3-0.3-0.6-0.6-1-0.8
					c-1.3-0.7-2.8-1.3-4.7-0.9c-0.4,0.1-0.8,0.2-1.3,0.3c-1.7,0.7-3.3,1.6-4.8,2.7c-0.5,0.4-1,0.8-1.4,1.2c-0.3,0.3-0.6,0.6-0.9,1
					c0.5-0.7,1.1-1.4,1.8-2.1c0.5-0.4,0.9-0.8,1.4-1.2c1.5-1.2,3.1-2.1,4.8-2.7c0.4-0.2,0.9-0.3,1.3-0.3c1.9-0.4,3.4,0.2,4.7,0.9
					c0.4,0.2,0.7,0.5,1,0.8C587.2,142.5,584.1,147.2,581.4,150.7z"/>
			</g>
			<g>
				<g>
					<path class="st6" d="M581.1,143.8c-0.4-0.4-1.1-0.5-1.5-0.1c-0.4,0.4-0.5,1.1-0.1,1.5c0.4,0.4,1.1,0.5,1.5,0.1
						C581.4,144.9,581.4,144.2,581.1,143.8z"/>
					<path class="st6" d="M583,143.6c-0.2-0.2-0.5-0.2-0.7,0c-0.2,0.2-0.2,0.5,0,0.7c0.2,0.2,0.5,0.2,0.7,0
						C583.2,144.1,583.2,143.8,583,143.6z"/>
					<path class="st6" d="M578.5,147.5c-0.2-0.2-0.5-0.2-0.7,0c-0.2,0.2-0.2,0.5,0,0.7c0.2,0.2,0.5,0.2,0.7,0
						C578.6,148,578.7,147.7,578.5,147.5z"/>
					<path class="st6" d="M581.9,142c-0.2-0.2-0.6-0.3-0.8-0.1c-0.2,0.2-0.3,0.6-0.1,0.8c0.2,0.2,0.6,0.3,0.8,0
						C582.1,142.6,582.1,142.2,581.9,142z"/>
				</g>
			</g>
		</g>
		<g>
			<path class="st5" d="M558.4,111.4c0.2,1,0.6,2,1.3,2.6c0.2,0.2,0.3,0.3,0.6,0.4c0.8,0.4,1.6,0.7,2.5,0.8c0.3,0,0.6,0,0.9,0
				c0.8-0.1,1.7-0.4,2.4-0.8c0.2-0.1,0.5-0.3,0.7-0.5c1-0.9,1.8-2.2,1.6-3.6c0-0.3-0.1-0.5-0.2-0.8c-0.8-1.6-2.3-3.3-4.2-3.3
				c-0.3,0-0.5,0-0.8,0.1c-2,0.6-4.5,1.6-4.8,4C558.3,110.8,558.3,111.1,558.4,111.4z"/>
			<path class="st4" d="M560.1,113.9c0.3,0,0.6,0,0.9,0c0.8-0.1,1.7-0.4,2.4-0.8c0.2-0.1,0.5-0.3,0.7-0.5c1-0.9,1.8-2.2,1.6-3.6
				c0-0.3-0.1-0.5-0.2-0.8c-0.3-0.7-0.8-1.4-1.4-2c1.8,0,3.3,1.7,4.1,3.3c0.1,0.3,0.2,0.5,0.2,0.8c0.2,1.3-0.5,2.6-1.6,3.6
				c-0.2,0.2-0.4,0.3-0.7,0.5c-0.7,0.4-1.6,0.7-2.4,0.8c-0.3,0-0.6,0-0.9,0c-0.9-0.1-1.7-0.4-2.5-0.8c-0.2-0.1-0.4-0.3-0.6-0.4
				c-0.1-0.1-0.1-0.1-0.2-0.2C559.7,113.9,559.9,113.9,560.1,113.9z"/>
			<path class="st6" d="M562.1,115.1c0.3,0,0.6,0,0.9,0c0.8-0.1,1.7-0.4,2.4-0.8c0.2-0.1,0.5-0.3,0.7-0.5c1-0.9,1.8-2.2,1.6-3.6
				c0-0.3-0.1-0.5-0.2-0.8c-0.6-1.3-1.7-2.6-3.1-3.1c1.6,0.2,3,1.8,3.7,3.2c0.1,0.3,0.2,0.5,0.2,0.8c0.2,1.3-0.5,2.6-1.6,3.6
				c-0.2,0.2-0.4,0.3-0.7,0.5c-0.7,0.4-1.6,0.7-2.4,0.8c-0.3,0-0.6,0-0.9,0c-0.4,0-0.8-0.1-1.2-0.2
				C561.8,115,561.9,115.1,562.1,115.1z"/>
			<path class="st3" d="M563,106.5c0.1,0,0.1,0,0.2,0c-1.9,0.6-4.1,1.6-4.3,3.9c0,0.3,0,0.6,0.1,0.9c0.2,1,0.6,2,1.3,2.7
				c0.2,0.2,0.4,0.3,0.5,0.4c0.8,0.4,1.7,0.7,2.5,0.8c0.3,0,0.6,0,0.9,0c0.2,0,0.4-0.1,0.6-0.1c-0.4,0.1-0.8,0.2-1.3,0.3
				c-0.3,0-0.6,0-0.9,0c-0.9-0.1-1.7-0.4-2.5-0.8c-0.2-0.1-0.4-0.3-0.6-0.4c-0.7-0.7-1.1-1.7-1.3-2.6c-0.1-0.3-0.1-0.6-0.1-0.9
				C558.5,108,561,107,563,106.5z"/>
		</g>
		<g>
			<path class="st5" d="M476.5,127c0.3,1.1,0.7,2.3,1.6,3.1c0.2,0.2,0.4,0.4,0.6,0.5c0.9,0.5,1.9,0.8,3,0.9c0.3,0,0.7,0,1,0
				c1-0.1,1.9-0.4,2.8-0.9c0.3-0.2,0.6-0.4,0.8-0.6c1.2-1.1,2.1-2.6,1.9-4.2c0-0.3-0.1-0.6-0.3-0.9c-1-1.9-2.7-3.9-4.9-3.8
				c-0.3,0-0.6,0.1-1,0.1c-2.4,0.7-5.3,1.9-5.6,4.7C476.3,126.3,476.4,126.7,476.5,127z"/>
			<path class="st4" d="M478.5,130c0.3,0,0.7,0,1,0c1-0.1,1.9-0.4,2.8-0.9c0.3-0.2,0.6-0.4,0.8-0.6c1.2-1.1,2.1-2.6,1.9-4.2
				c-0.1-0.3-0.1-0.6-0.3-0.9c-0.4-0.8-1-1.6-1.6-2.3c2.1,0,3.8,2,4.8,3.8c0.1,0.3,0.2,0.6,0.3,0.9c0.2,1.6-0.6,3.1-1.9,4.2
				c-0.3,0.2-0.5,0.4-0.8,0.6c-0.9,0.5-1.8,0.8-2.8,0.9c-0.3,0-0.7,0-1,0c-1-0.1-2-0.4-3-0.9c-0.2-0.1-0.5-0.3-0.6-0.5
				c-0.1-0.1-0.1-0.1-0.2-0.2C478.1,130,478.3,130,478.5,130z"/>
			<path class="st6" d="M480.9,131.3c0.3,0,0.7,0,1,0c1-0.1,1.9-0.4,2.8-0.9c0.3-0.2,0.5-0.4,0.8-0.6c1.2-1.1,2.1-2.6,1.9-4.2
				c-0.1-0.3-0.1-0.6-0.3-0.9c-0.7-1.5-2-3-3.6-3.6c1.9,0.3,3.5,2.1,4.3,3.8c0.1,0.3,0.2,0.6,0.3,0.9c0.2,1.6-0.6,3.1-1.9,4.2
				c-0.3,0.2-0.5,0.4-0.8,0.6c-0.9,0.5-1.8,0.8-2.8,0.9c-0.3,0-0.7,0-1,0c-0.5,0-1-0.1-1.4-0.3C480.4,131.3,480.6,131.3,480.9,131.3
				z"/>
			<path class="st3" d="M481.9,121.3c0.1,0,0.1,0,0.2,0c-2.3,0.7-4.8,1.9-5,4.6c0,0.3,0,0.7,0.1,1c0.3,1.1,0.7,2.3,1.6,3.1
				c0.2,0.2,0.4,0.3,0.6,0.5c0.9,0.5,1.9,0.8,3,0.9c0.3,0,0.7,0,1,0c0.2,0,0.5-0.1,0.7-0.1c-0.5,0.2-1,0.3-1.5,0.3c-0.3,0-0.7,0-1,0
				c-1-0.1-2-0.4-3-0.9c-0.2-0.1-0.5-0.3-0.6-0.5c-0.9-0.8-1.3-2-1.6-3.1c-0.1-0.3-0.1-0.7-0.1-1
				C476.6,123.1,479.5,121.9,481.9,121.3z"/>
		</g>
	</g>
	<g>
		<path class="st7" d="M506.3,572.8c-0.9,0-1.6-0.7-1.6-1.6c0-0.9,0.7-1.6,1.6-1.6c0.9,0,1.6,0.7,1.6,1.6
			C507.9,572,507.2,572.8,506.3,572.8z"/>
		<path class="st7" d="M559.1,452.5c-0.9,0-1.6-0.7-1.6-1.6c0-0.9,0.7-1.6,1.6-1.6c0.9,0,1.6,0.7,1.6,1.6
			C560.7,451.8,560,452.5,559.1,452.5z"/>
		<path class="st7" d="M618.6,502.6c-0.9,0-1.6-0.7-1.6-1.6c0-0.9,0.7-1.6,1.6-1.6c0.9,0,1.6,0.7,1.6,1.6
			C620.2,501.9,619.5,502.6,618.6,502.6z"/>
		<path class="st7" d="M597.8,371.3c-0.9,0-1.6-0.7-1.6-1.6c0-0.9,0.7-1.6,1.6-1.6c0.9,0,1.6,0.7,1.6,1.6
			C599.4,370.6,598.7,371.3,597.8,371.3z"/>
		<path class="st7" d="M210.6,591.9c-0.9,0-1.6-0.7-1.6-1.6c0-0.9,0.7-1.6,1.6-1.6c0.9,0,1.6,0.7,1.6,1.6
			C212.2,591.1,211.5,591.9,210.6,591.9z"/>
		<path class="st7" d="M365.7,532.7c-0.9,0-1.6-0.7-1.6-1.6c0-0.9,0.7-1.6,1.6-1.6s1.6,0.7,1.6,1.6
			C367.3,532,366.6,532.7,365.7,532.7z"/>
		<path class="st7" d="M183,288.8c-0.9,0-1.6-0.7-1.6-1.6c0-0.9,0.7-1.6,1.6-1.6c0.9,0,1.6,0.7,1.6,1.6
			C184.6,288.1,183.9,288.8,183,288.8z"/>
		<path class="st7" d="M209,474.1c-0.9,0-1.6-0.7-1.6-1.6c0-0.9,0.7-1.6,1.6-1.6c0.9,0,1.6,0.7,1.6,1.6
			C210.6,473.4,209.9,474.1,209,474.1z"/>
		<path class="st7" d="M115.6,352.9c-0.9,0-1.6-0.7-1.6-1.6c0-0.9,0.7-1.6,1.6-1.6c0.9,0,1.6,0.7,1.6,1.6
			C117.2,352.2,116.5,352.9,115.6,352.9z"/>
		<path class="st7" d="M21.4,589.2c-0.9,0-1.6-0.7-1.6-1.6c0-0.9,0.7-1.6,1.6-1.6c0.9,0,1.6,0.7,1.6,1.6
			C23,588.5,22.3,589.2,21.4,589.2z"/>
		<path class="st7" d="M733.4,499.3c-0.9,0-1.6-0.7-1.6-1.6c0-0.9,0.7-1.6,1.6-1.6c0.9,0,1.6,0.7,1.6,1.6
			C735,498.6,734.3,499.3,733.4,499.3z"/>
		<path class="st7" d="M760.3,420.7c-0.9,0-1.6-0.7-1.6-1.6c0-0.9,0.7-1.6,1.6-1.6c0.9,0,1.6,0.7,1.6,1.6
			C761.9,420,761.2,420.7,760.3,420.7z"/>
		<g>
			<path class="st8" d="M37.5,507.5c-0.7,0-1.3-0.6-1.3-1.3c0-0.7,0.6-1.3,1.3-1.3c0.7,0,1.3,0.6,1.3,1.3
				C38.8,506.9,38.2,507.5,37.5,507.5z"/>
			<path class="st9" d="M37.5,507.5c-0.7,0-1.3-0.6-1.3-1.3c0-0.7,0.6-1.3,1.3-1.3c0.7,0,1.3,0.6,1.3,1.3
				C38.8,506.9,38.2,507.5,37.5,507.5z"/>
		</g>
		<path class="st7" d="M784.8,613c-0.7,0-1.3-0.6-1.3-1.3c0-0.7,0.6-1.3,1.3-1.3c0.7,0,1.3,0.6,1.3,1.3
			C786,612.4,785.5,613,784.8,613z"/>
		<path class="st7" d="M573.7,619.2c-0.7,0-1.3-0.6-1.3-1.3c0-0.7,0.6-1.3,1.3-1.3c0.7,0,1.3,0.6,1.3,1.3
			C575,618.7,574.5,619.2,573.7,619.2z"/>
		<path class="st7" d="M618.6,559.8c-0.7,0-1.3-0.6-1.3-1.3c0-0.7,0.6-1.3,1.3-1.3c0.7,0,1.3,0.6,1.3,1.3
			C619.9,559.2,619.3,559.8,618.6,559.8z"/>
		<path class="st7" d="M126.6,586.6c-0.7,0-1.3-0.6-1.3-1.3c0-0.7,0.6-1.3,1.3-1.3c0.7,0,1.3,0.6,1.3,1.3
			C127.9,586,127.3,586.6,126.6,586.6z"/>
		<path class="st7" d="M291.7,637.1c-0.7,0-1.3-0.6-1.3-1.3c0-0.7,0.6-1.3,1.3-1.3c0.7,0,1.3,0.6,1.3,1.3
			C293,636.6,292.4,637.1,291.7,637.1z"/>
		<path class="st7" d="M770.8,187.9c-0.7,0-1.3-0.6-1.3-1.3c0-0.7,0.6-1.3,1.3-1.3c0.7,0,1.3,0.6,1.3,1.3
			C772.1,187.4,771.5,187.9,770.8,187.9z"/>
		<path class="st7" d="M782.5,304.4c-0.7,0-1.3-0.6-1.3-1.3c0-0.7,0.6-1.3,1.3-1.3c0.7,0,1.3,0.6,1.3,1.3
			C783.8,303.9,783.2,304.4,782.5,304.4z"/>
		<path class="st7" d="M607.8,32.1c-0.7,0-1.3-0.6-1.3-1.3c0-0.7,0.6-1.3,1.3-1.3c0.7,0,1.3,0.6,1.3,1.3
			C609.1,31.5,608.5,32.1,607.8,32.1z"/>
		<path class="st7" d="M755.5,354.5c-0.7,0-1.3-0.6-1.3-1.3c0-0.7,0.6-1.3,1.3-1.3c0.7,0,1.3,0.6,1.3,1.3
			C756.8,353.9,756.2,354.5,755.5,354.5z"/>
		<path class="st7" d="M283.5,316.1c-0.7,0-1.3-0.6-1.3-1.3c0-0.7,0.6-1.3,1.3-1.3c0.7,0,1.3,0.6,1.3,1.3
			C284.8,315.5,284.2,316.1,283.5,316.1z"/>
		<path class="st7" d="M672.5,321.6c-0.7,0-1.3-0.6-1.3-1.3c0-0.7,0.6-1.3,1.3-1.3c0.7,0,1.3,0.6,1.3,1.3
			C673.7,321,673.2,321.6,672.5,321.6z"/>
		<path class="st7" d="M489.8,29.5c-0.7,0-1.3-0.6-1.3-1.3c0-0.7,0.6-1.3,1.3-1.3c0.7,0,1.3,0.6,1.3,1.3
			C491.1,28.9,490.5,29.5,489.8,29.5z"/>
		<path class="st7" d="M725.3,122.4c-0.7,0-1.3-0.6-1.3-1.3s0.6-1.3,1.3-1.3c0.7,0,1.3,0.6,1.3,1.3S726,122.4,725.3,122.4z"/>
		<path class="st7" d="M547,108.2c-0.7,0-1.3-0.6-1.3-1.3c0-0.7,0.6-1.3,1.3-1.3c0.7,0,1.3,0.6,1.3,1.3
			C548.3,107.7,547.7,108.2,547,108.2z"/>
		<path class="st7" d="M258.8,17.2c-0.7,0-1.3-0.6-1.3-1.3c0-0.7,0.6-1.3,1.3-1.3c0.7,0,1.3,0.6,1.3,1.3
			C260,16.6,259.5,17.2,258.8,17.2z"/>
		<path class="st7" d="M256.2,133.6c-0.7,0-1.3-0.6-1.3-1.3c0-0.7,0.6-1.3,1.3-1.3c0.7,0,1.3,0.6,1.3,1.3
			C257.5,133,256.9,133.6,256.2,133.6z"/>
		<path class="st7" d="M425.9,119.1c-0.7,0-1.3-0.6-1.3-1.3c0-0.7,0.6-1.3,1.3-1.3c0.7,0,1.3,0.6,1.3,1.3
			C427.2,118.5,426.6,119.1,425.9,119.1z"/>
		<path class="st7" d="M100.6,178c-0.7,0-1.3-0.6-1.3-1.3c0-0.7,0.6-1.3,1.3-1.3c0.7,0,1.3,0.6,1.3,1.3
			C101.9,177.4,101.3,178,100.6,178z"/>
		<path class="st7" d="M46.9,395.9c-0.9,0-1.6-0.7-1.6-1.6c0-0.9,0.7-1.6,1.6-1.6c0.9,0,1.6,0.7,1.6,1.6
			C48.5,395.2,47.8,395.9,46.9,395.9z"/>
		<path class="st7" d="M40.2,290.6c-0.7,0-1.3-0.6-1.3-1.3c0-0.7,0.6-1.3,1.3-1.3c0.7,0,1.3,0.6,1.3,1.3
			C41.5,290.1,40.9,290.6,40.2,290.6z"/>
		<path class="st7" d="M74.3,212c-0.7,0-1.3-0.6-1.3-1.3c0-0.7,0.6-1.3,1.3-1.3c0.7,0,1.3,0.6,1.3,1.3C75.6,211.4,75,212,74.3,212z"
			/>
		<path class="st7" d="M43.8,50.6c-0.7,0-1.3-0.6-1.3-1.3c0-0.7,0.6-1.3,1.3-1.3c0.7,0,1.3,0.6,1.3,1.3
			C45.1,50.1,44.5,50.6,43.8,50.6z"/>
		<path class="st7" d="M485,464.7c-0.9,0-1.6-0.7-1.6-1.6c0-0.9,0.7-1.6,1.6-1.6c0.9,0,1.6,0.7,1.6,1.6
			C486.6,463.9,485.9,464.7,485,464.7z"/>
		<path class="st7" d="M285.8,430.6c-0.9,0-1.6-0.7-1.6-1.6c0-0.9,0.7-1.6,1.6-1.6c0.9,0,1.6,0.7,1.6,1.6
			C287.4,429.9,286.7,430.6,285.8,430.6z"/>
		<path class="st7" d="M169.3,382.3c-0.9,0-1.6-0.7-1.6-1.6c0-0.9,0.7-1.6,1.6-1.6c0.9,0,1.6,0.7,1.6,1.6
			C170.9,381.6,170.2,382.3,169.3,382.3z"/>
		<path class="st7" d="M330.2,178.7c-0.4,0-0.7-0.3-0.7-0.7c0-0.4,0.3-0.7,0.7-0.7c0.4,0,0.7,0.3,0.7,0.7
			C330.9,178.4,330.6,178.7,330.2,178.7z"/>
		<path class="st7" d="M375,235.6c-0.9,0-1.7-0.7-1.7-1.7c0-0.9,0.7-1.7,1.7-1.7c0.9,0,1.7,0.7,1.7,1.7
			C376.7,234.8,376,235.6,375,235.6z"/>
		<path class="st7" d="M475,363.1c-0.7,0-1.3-0.6-1.3-1.3c0-0.7,0.6-1.3,1.3-1.3c0.7,0,1.3,0.6,1.3,1.3
			C476.3,362.6,475.8,363.1,475,363.1z"/>
		<path class="st7" d="M489.4,223.2c-0.7,0-1.3-0.6-1.3-1.3c0-0.7,0.6-1.3,1.3-1.3c0.7,0,1.3,0.6,1.3,1.3
			C490.7,222.6,490.1,223.2,489.4,223.2z"/>
		<path class="st7" d="M654.3,119.1c-0.7,0-1.3-0.6-1.3-1.3c0-0.7,0.6-1.3,1.3-1.3c0.7,0,1.3,0.6,1.3,1.3
			C655.6,118.5,655,119.1,654.3,119.1z"/>
		<path class="st7" d="M474.4,296.2c-0.7,0-1.3-0.6-1.3-1.3c0-0.7,0.6-1.3,1.3-1.3c0.7,0,1.3,0.6,1.3,1.3
			C475.7,295.7,475.1,296.2,474.4,296.2z"/>
		<path class="st7" d="M396.4,454.9c-0.7,0-1.3-0.6-1.3-1.3c0-0.7,0.6-1.3,1.3-1.3c0.7,0,1.3,0.6,1.3,1.3
			C397.7,454.3,397.1,454.9,396.4,454.9z"/>
		<path class="st7" d="M453.5,338.8c-0.3,0-0.6-0.2-0.6-0.6c0-0.3,0.3-0.6,0.6-0.6s0.6,0.2,0.6,0.6
			C454.1,338.6,453.8,338.8,453.5,338.8z"/>
		<path class="st7" d="M536,300.8c-0.3,0-0.6-0.3-0.6-0.6c0-0.3,0.3-0.6,0.6-0.6c0.3,0,0.6,0.3,0.6,0.6
			C536.6,300.6,536.3,300.8,536,300.8z"/>
	</g>
	<g>
		<g>
			<path class="st10" d="M553.7,564.5c-0.1,1.2,0,2.3,0.2,3.5c0.1,0.6,0.2,1.1,0.4,1.7c1.5,5.3,4.6,10.1,9,13.2
				c0.5,0.3,1,0.6,1.5,0.9c4.7,3.9,11,5.3,16.9,4.6c0.7-0.1,1.3-0.2,2-0.3c3.7-0.3,7.2-1.6,10.1-3.8c0.5-0.3,0.9-0.7,1.4-1.1
				c1.6-1.3,3-2.8,4.2-4.4c0.4-0.5,0.8-1.1,1.1-1.6c1.1-1.8,1.9-3.8,2.4-5.8c0.2-0.7,0.3-1.4,0.4-2c0.5-1.9,0.7-3.9,0.7-5.8
				c0-0.7,0-1.3-0.1-2c0-0.7-0.1-1.3-0.1-2c-0.1-0.7-0.2-1.3-0.4-2c-1.7-6.4-5.8-12.1-11.7-15.1c-0.4-0.2-0.9-0.5-1.4-0.7
				c-2.8-1.3-5.9-1.9-9.1-2c-0.5,0-1.1-0.1-1.6-0.1c-0.6,0-1.1,0-1.7,0c-0.7,0-1.3,0.1-2,0.1c-2.7,0.2-5.5,1-7.9,2.1
				c-0.6,0.3-1.2,0.6-1.8,1c-5,2.4-8.9,6.8-10.4,12.1c-0.2,0.7-0.3,1.3-0.5,2c-0.3,1.9-0.7,3.8-1.4,5.8
				C553.9,563.3,553.8,563.9,553.7,564.5z"/>
			<path class="st11" d="M596.1,545.3c-1-0.8-2-1.6-3.1-2.2c-14.6,20.5-39.2,24.9-39.2,24.9c0.1,0.6,0.2,1.1,0.4,1.7
				c0.1,0.5,0.3,0.9,0.4,1.4C579.2,565.5,591.8,551.1,596.1,545.3z"/>
			<path class="st11" d="M590.8,541.9c-0.1-0.1-0.3-0.1-0.4-0.2c-1-0.5-2.1-0.9-3.3-1.2c-10.6,13.4-25.4,19.2-32.8,21.4
				c-0.1,0.2-0.2,0.5-0.3,0.8c-0.1,0.6-0.3,1.2-0.3,1.8c0,0.3,0,0.6,0,0.8C574.3,559.8,585.9,548.1,590.8,541.9z"/>
			<g>
				<path class="st12" d="M599.8,560.5c0-6.7-2.6-12.8-6.8-17.4c5.2,3.1,8.9,8.4,10.4,14.4c0.2,0.6,0.3,1.3,0.4,2
					c0.1,0.7,0.1,1.3,0.1,2c0.1,0.6,0.1,1.3,0.1,2c0,1.9-0.3,3.9-0.7,5.8c-0.1,0.7-0.3,1.4-0.4,2c-0.5,2-1.3,4-2.4,5.8
					c-0.3,0.6-0.7,1.1-1.1,1.6c-1.2,1.6-2.6,3.1-4.2,4.4c-0.4,0.4-0.9,0.8-1.4,1.1c-2.9,2.1-6.4,3.4-10.1,3.8
					c-0.7,0.1-1.3,0.2-2,0.3c-5.4,0.6-11.1-0.5-15.6-3.6c2.6,0.9,5.4,1.4,8.2,1.4C588.4,586.1,599.8,574.6,599.8,560.5z"/>
			</g>
			<g>
				<path class="st12" d="M566.6,577c0,0.4,0.3,0.7,0.7,0.7c0.4,0,0.7-0.3,0.7-0.7c0-0.4-0.3-0.7-0.7-0.7
					C566.9,576.3,566.6,576.6,566.6,577z"/>
				<path class="st12" d="M565.6,576.3c0,0.2,0.1,0.3,0.3,0.3c0.2,0,0.3-0.1,0.3-0.3c0-0.1-0.1-0.3-0.3-0.3
					C565.7,576,565.6,576.1,565.6,576.3z"/>
				<path class="st12" d="M569.3,576.3c0,0.2,0.1,0.3,0.3,0.3c0.2,0,0.3-0.1,0.3-0.3c0-0.1-0.1-0.3-0.3-0.3
					C569.4,576,569.3,576.2,569.3,576.3z"/>
				<path class="st12" d="M565.5,577.5c0,0.2,0.1,0.3,0.3,0.3c0.2,0,0.3-0.1,0.3-0.3c0-0.2-0.2-0.4-0.3-0.4
					C565.7,577.1,565.5,577.3,565.5,577.5z"/>
			</g>
			<g>
				<path class="st12" d="M592.8,573.6c0,0.4,0.3,0.7,0.7,0.7c0.4,0,0.7-0.3,0.7-0.7c0-0.4-0.3-0.7-0.7-0.7
					C593.1,572.9,592.8,573.2,592.8,573.6z"/>
				<path class="st12" d="M591.8,572.9c0,0.2,0.1,0.3,0.3,0.3c0.2,0,0.3-0.1,0.3-0.3c0-0.2-0.1-0.3-0.3-0.3
					C591.9,572.6,591.8,572.7,591.8,572.9z"/>
				<path class="st12" d="M595.5,572.9c0,0.1,0.1,0.3,0.3,0.3c0.2,0,0.3-0.1,0.3-0.3c0-0.2-0.1-0.3-0.3-0.3
					C595.6,572.6,595.5,572.8,595.5,572.9z"/>
				<path class="st12" d="M591.7,574.1c0,0.2,0.2,0.4,0.3,0.4c0.2,0,0.3-0.2,0.3-0.4c0-0.2-0.2-0.3-0.3-0.3
					C591.8,573.7,591.7,573.9,591.7,574.1z"/>
			</g>
			<g>
				<path class="st12" d="M591.5,551.1c-0.3,0.6,0,1.4,0.6,1.6c0.6,0.3,1.3,0,1.6-0.6c0.3-0.6,0-1.3-0.6-1.6
					C592.6,550.2,591.8,550.5,591.5,551.1z"/>
				<path class="st12" d="M590.4,549.1c-0.1,0.3,0,0.6,0.3,0.7c0.3,0.1,0.6,0,0.7-0.3c0.1-0.3,0-0.6-0.3-0.7
					C590.9,548.7,590.6,548.9,590.4,549.1z"/>
				<path class="st12" d="M596.6,552.2c-0.1,0.3,0,0.6,0.3,0.7c0.3,0.1,0.6,0,0.7-0.3c0.1-0.3,0-0.6-0.3-0.7
					C597,551.8,596.7,551.9,596.6,552.2z"/>
				<path class="st12" d="M589.3,551.1c-0.1,0.3,0,0.7,0.3,0.8c0.3,0.2,0.7,0,0.9-0.3c0.2-0.3,0-0.7-0.3-0.9
					C589.8,550.6,589.5,550.8,589.3,551.1z"/>
				<path class="st12" d="M560.1,555.2c-0.3,0.6,0,1.3,0.6,1.6c0.6,0.3,1.3,0,1.6-0.6c0.3-0.6,0-1.3-0.6-1.6
					C561.1,554.3,560.3,554.6,560.1,555.2z"/>
				<path class="st12" d="M558.9,553.2c-0.1,0.3,0,0.6,0.3,0.7c0.3,0.1,0.6,0,0.7-0.3c0.1-0.3,0-0.6-0.3-0.7
					C559.4,552.8,559.1,552.9,558.9,553.2z"/>
				<path class="st12" d="M557.8,555.1c-0.2,0.3,0,0.7,0.3,0.9c0.3,0.2,0.7,0,0.9-0.3c0.2-0.3,0-0.7-0.3-0.9
					C558.4,554.7,558,554.8,557.8,555.1z"/>
			</g>
		</g>
	</g>
	<g>
		<g>
			<path class="st13" d="M683.1,424c-0.1,1.2,0,2.4,0.2,3.6c0.1,0.6,0.2,1.2,0.4,1.7c1.5,5.5,4.7,10.4,9.3,13.5c0.5,0.3,1,0.7,1.6,1
				c4.8,4,11.3,5.5,17.4,4.8c0.7-0.1,1.4-0.2,2-0.3c3.8-0.4,7.4-1.7,10.4-3.9c0.5-0.4,1-0.8,1.4-1.2c1.7-1.3,3.1-2.9,4.3-4.5
				c0.4-0.5,0.8-1.1,1.1-1.7c1.1-1.9,1.9-3.9,2.5-6c0.2-0.7,0.3-1.4,0.5-2.1c0.5-2,0.7-4,0.7-6c0-0.7,0-1.3-0.1-2
				c0-0.7-0.1-1.4-0.1-2.1c-0.1-0.7-0.2-1.3-0.4-2c-1.7-6.6-6-12.5-12-15.6c-0.5-0.3-0.9-0.5-1.4-0.7c-2.9-1.3-6.1-2-9.3-2.1
				c-0.6-0.1-1.1-0.1-1.7-0.1c-0.6,0-1.1,0-1.7,0c-0.7,0-1.4,0.1-2,0.1c-2.8,0.2-5.6,1-8.2,2.2c-0.6,0.3-1.3,0.6-1.9,1
				c-5.1,2.5-9.1,7-10.7,12.5c-0.2,0.7-0.3,1.4-0.5,2.1c-0.3,2-0.7,3.9-1.4,5.9C683.3,422.8,683.2,423.4,683.1,424z"/>
			<path class="st14" d="M726.7,404.3c-1-0.9-2-1.6-3.1-2.3c-15,21.2-40.3,25.6-40.3,25.6c0.1,0.6,0.2,1.2,0.4,1.7
				c0.1,0.5,0.3,1,0.4,1.4C709.4,425.1,722.4,410.3,726.7,404.3z"/>
			<path class="st14" d="M721.3,400.8c-0.1-0.1-0.3-0.1-0.4-0.2c-1.1-0.5-2.2-0.9-3.4-1.2c-11,13.8-26.2,19.8-33.8,22
				c-0.1,0.3-0.2,0.5-0.3,0.8c-0.2,0.6-0.3,1.3-0.4,1.9c0,0.3,0,0.6,0,0.9C704.4,419.2,716.3,407.1,721.3,400.8z"/>
			<g>
				<g>
					<path class="st15" d="M730.6,419.9c0-6.9-2.7-13.2-7-17.9c5.3,3.2,9.1,8.7,10.7,14.8c0.2,0.7,0.3,1.3,0.4,2
						c0.1,0.7,0.1,1.4,0.1,2.1c0.1,0.7,0.1,1.3,0.1,2c0,2-0.3,4-0.7,6c-0.1,0.7-0.3,1.4-0.5,2.1c-0.5,2.1-1.4,4.1-2.5,6
						c-0.4,0.6-0.7,1.1-1.1,1.7c-1.2,1.6-2.7,3.2-4.3,4.5c-0.5,0.4-0.9,0.8-1.4,1.2c-3,2.2-6.5,3.5-10.4,3.9c-0.7,0.1-1.3,0.3-2,0.3
						c-5.6,0.7-11.4-0.5-16.1-3.8c2.7,0.9,5.5,1.4,8.5,1.4C718.9,446.3,730.6,434.5,730.6,419.9z"/>
				</g>
			</g>
			<path class="st16" d="M709.6,401.3c-0.2,0.7-0.3,1.5,0,2.3c0.1,0.2,0.1,0.3,0.2,0.5c0.4,0.6,0.9,1.1,1.4,1.4
				c0.2,0.1,0.4,0.2,0.6,0.3c0.6,0.2,1.2,0.3,1.9,0.3c0.2,0,0.4,0,0.6-0.1c1-0.3,2-0.9,2.3-1.9c0.1-0.2,0.1-0.4,0.1-0.6
				c0-1.4-0.4-3.1-1.7-3.7c-0.2-0.1-0.4-0.2-0.6-0.2c-1.6-0.3-3.6-0.5-4.6,1.1C709.7,400.8,709.6,401,709.6,401.3z"/>
			<path class="st16" d="M703.4,402.2c-0.1,0.4-0.1,0.9,0,1.3c0,0.1,0.1,0.2,0.1,0.3c0.2,0.3,0.5,0.6,0.8,0.8
				c0.1,0.1,0.2,0.1,0.3,0.2c0.3,0.1,0.7,0.2,1.1,0.2c0.1,0,0.2,0,0.4-0.1c0.6-0.2,1.1-0.5,1.3-1c0-0.1,0.1-0.2,0.1-0.4
				c0-0.8-0.2-1.7-1-2.1c-0.1,0-0.2-0.1-0.3-0.1c-0.9-0.2-2-0.3-2.6,0.6C703.5,401.9,703.4,402,703.4,402.2z"/>
			<g>
				<path class="st15" d="M696.4,436.9c0,0.4,0.3,0.7,0.7,0.7c0.4,0,0.7-0.3,0.7-0.7c0-0.4-0.3-0.7-0.7-0.7
					C696.7,436.2,696.4,436.5,696.4,436.9z"/>
				<path class="st15" d="M695.4,436.1c0,0.2,0.1,0.3,0.3,0.3c0.2,0,0.3-0.1,0.3-0.3c0-0.1-0.1-0.3-0.3-0.3
					C695.5,435.9,695.4,436,695.4,436.1z"/>
				<path class="st15" d="M699.2,436.2c0,0.2,0.1,0.3,0.3,0.3c0.2,0,0.3-0.1,0.3-0.3c0-0.2-0.1-0.3-0.3-0.3
					C699.3,435.9,699.2,436.1,699.2,436.2z"/>
				<path class="st15" d="M695.3,437.4c0,0.2,0.2,0.3,0.4,0.3c0.2,0,0.4-0.1,0.4-0.3c0-0.2-0.2-0.4-0.4-0.4
					C695.4,437,695.3,437.2,695.3,437.4z"/>
			</g>
			<g>
				<path class="st15" d="M723.3,433.4c0,0.4,0.3,0.7,0.7,0.7c0.4,0,0.7-0.3,0.7-0.7c0-0.4-0.3-0.7-0.7-0.7
					C723.7,432.7,723.3,433,723.3,433.4z"/>
				<path class="st15" d="M722.3,432.7c0,0.2,0.1,0.3,0.3,0.3c0.2,0,0.3-0.1,0.3-0.3c0-0.2-0.1-0.3-0.3-0.3
					C722.5,432.4,722.3,432.5,722.3,432.7z"/>
				<path class="st15" d="M726.1,432.7c0,0.2,0.1,0.3,0.3,0.3c0.2,0,0.3-0.1,0.3-0.3c0-0.2-0.1-0.3-0.3-0.3
					C726.3,432.4,726.1,432.6,726.1,432.7z"/>
				<path class="st15" d="M722.2,433.9c0,0.2,0.2,0.4,0.4,0.4c0.2,0,0.4-0.2,0.4-0.4c0-0.2-0.2-0.3-0.4-0.3
					C722.4,433.6,722.2,433.7,722.2,433.9z"/>
			</g>
			<g>
				<path class="st15" d="M722.1,410.3c-0.3,0.6,0,1.4,0.6,1.7c0.6,0.3,1.4,0,1.7-0.6c0.3-0.6,0-1.4-0.6-1.7
					C723.1,409.4,722.4,409.7,722.1,410.3z"/>
				<path class="st15" d="M720.9,408.2c-0.1,0.3,0,0.6,0.3,0.7c0.3,0.1,0.6,0,0.7-0.3c0.1-0.3,0-0.6-0.3-0.7
					C721.4,407.8,721.1,407.9,720.9,408.2z"/>
				<path class="st15" d="M727.3,411.3c-0.1,0.3,0,0.6,0.3,0.7c0.3,0.1,0.6,0,0.7-0.3c0.1-0.3,0-0.6-0.3-0.7
					C727.7,410.9,727.4,411,727.3,411.3z"/>
				<path class="st15" d="M719.8,410.2c-0.2,0.3,0,0.7,0.3,0.9c0.3,0.2,0.7,0,0.9-0.3c0.2-0.3,0-0.7-0.3-0.9
					C720.3,409.8,719.9,409.9,719.8,410.2z"/>
				<path class="st15" d="M689.7,414.5c-0.3,0.6,0,1.4,0.6,1.7c0.6,0.3,1.4,0,1.7-0.6c0.3-0.6,0-1.4-0.6-1.7
					C690.7,413.6,690,413.8,689.7,414.5z"/>
				<path class="st15" d="M688.5,412.4c-0.1,0.3,0,0.6,0.3,0.7c0.3,0.1,0.6,0,0.7-0.3c0.1-0.3,0-0.6-0.3-0.7
					C689,412,688.7,412.1,688.5,412.4z"/>
				<path class="st15" d="M687.4,414.4c-0.2,0.3,0,0.7,0.3,0.9c0.3,0.2,0.7,0,0.9-0.3c0.2-0.3,0-0.7-0.3-0.9
					C687.9,413.9,687.5,414.1,687.4,414.4z"/>
			</g>
			<path class="st17" d="M756.1,397.1c0-0.1,0-0.1,0-0.2c0,0,0-0.1,0-0.1c0-0.1,0-0.1,0-0.2c0,0,0-0.1,0-0.1c0,0,0-0.1,0-0.1
				c0,0,0-0.1,0-0.1c0,0,0-0.1-0.1-0.1c0,0,0-0.1-0.1-0.1c0,0,0-0.1-0.1-0.1c0,0,0-0.1-0.1-0.1c0,0-0.1-0.1-0.1-0.1
				c0,0,0-0.1-0.1-0.1c0,0-0.1-0.1-0.1-0.1c0,0-0.1-0.1-0.1-0.1c0,0-0.1-0.1-0.1-0.1c0,0-0.1-0.1-0.1-0.1c0,0-0.1-0.1-0.2-0.1
				c0,0-0.1,0-0.1-0.1c-0.1,0-0.1-0.1-0.2-0.1c0,0-0.1,0-0.1-0.1c-0.1,0-0.2-0.1-0.3-0.1c-5.8-2.1-21.2,7-26.6,10.4
				c0.5,0.4,0.9,0.9,1.3,1.4c4-1.8,12.5-5.2,10.7,0.4c-0.1,0.2-0.2,0.4-0.2,0.7c0,0.1-0.1,0.2-0.1,0.2c-0.1,0.2-0.1,0.3-0.2,0.5
				c0,0.1-0.1,0.2-0.1,0.3c-0.1,0.1-0.1,0.3-0.2,0.4c0,0.1-0.1,0.2-0.1,0.3c-0.1,0.1-0.1,0.3-0.2,0.4c0,0.1-0.1,0.2-0.1,0.3
				c-0.1,0.2-0.2,0.4-0.3,0.6c0,0.1-0.1,0.2-0.1,0.3c-0.1,0.2-0.2,0.3-0.3,0.5c-0.1,0.1-0.1,0.2-0.2,0.3c-0.1,0.1-0.2,0.2-0.2,0.4
				c-0.1,0.1-0.1,0.2-0.2,0.3c-0.1,0.1-0.2,0.2-0.2,0.3c-0.1,0.1-0.2,0.2-0.2,0.4c-0.1,0.1-0.2,0.2-0.2,0.3
				c-0.1,0.1-0.2,0.3-0.3,0.4c-0.1,0.1-0.1,0.2-0.2,0.3c-0.2,0.3-0.4,0.5-0.6,0.8c-0.1,0.1-0.1,0.1-0.2,0.2
				c-0.1,0.1-0.2,0.3-0.4,0.4c-0.1,0.1-0.1,0.2-0.2,0.2c-0.1,0.2-0.2,0.3-0.4,0.5c-0.1,0.1-0.1,0.2-0.2,0.2
				c-0.1,0.1-0.3,0.3-0.4,0.5c-0.1,0.1-0.1,0.1-0.2,0.2c-0.6,0.6-1.1,1.2-1.7,1.8l0,0c-0.2,0.2-0.4,0.4-0.6,0.6c0,0-0.1,0.1-0.1,0.1
				c-0.2,0.2-0.4,0.4-0.6,0.6c0,0-0.1,0.1-0.1,0.1c-0.2,0.2-0.4,0.4-0.6,0.6c0,0,0,0-0.1,0c-1,0.9-2,1.8-3.1,2.7c0,0,0,0-0.1,0.1
				c-0.3,0.2-0.5,0.4-0.8,0.7c0,0,0,0-0.1,0.1c-1.5,1.2-3.1,2.3-4.8,3.5c-2.3,1.6-4.7,3.2-7.4,5c-15.9,10-30.6,15.1-31.8,11
				c-0.9-3.3,2.9-7.6,4.5-9.2c-0.3-0.6-0.6-1.2-0.8-1.7c-4.1,2.8-19.9,14.1-19.5,21.1c0.5,9.6,26.7-3.2,50-18.5
				c2.3-1.5,4.6-3.1,6.8-4.6c0,0,0.1,0,0.1-0.1c0.4-0.3,0.8-0.5,1.1-0.8c0.1,0,0.1-0.1,0.2-0.1c0.4-0.2,0.7-0.5,1.1-0.8
				c0.1,0,0.1-0.1,0.2-0.1c0.3-0.2,0.7-0.5,1-0.7c0.1,0,0.2-0.1,0.2-0.2c0.3-0.2,0.7-0.5,1-0.7c0.1-0.1,0.2-0.1,0.2-0.2
				c0.3-0.2,0.7-0.5,1-0.7c0.1-0.1,0.2-0.1,0.2-0.2c0.3-0.2,0.6-0.5,1-0.7c0.1-0.1,0.1-0.1,0.2-0.2c0.3-0.2,0.6-0.5,0.9-0.7
				c0.1,0,0.1-0.1,0.2-0.1c0.3-0.2,0.6-0.5,0.9-0.7c0,0,0.1-0.1,0.1-0.1c0.3-0.2,0.6-0.5,1-0.8c0,0,0,0,0.1,0
				c2.5-1.9,4.8-3.8,6.9-5.6c0,0,0,0,0,0c0.3-0.2,0.5-0.5,0.8-0.7c0,0,0.1-0.1,0.1-0.1c0.3-0.2,0.5-0.4,0.7-0.6
				c0.1,0,0.1-0.1,0.2-0.1c0.2-0.2,0.5-0.4,0.7-0.6c0.1-0.1,0.1-0.1,0.2-0.2c0.2-0.2,0.4-0.4,0.6-0.6c0.1-0.1,0.1-0.1,0.2-0.2
				c0.2-0.2,0.4-0.4,0.6-0.5c0.1-0.1,0.1-0.1,0.2-0.2c0.2-0.2,0.4-0.3,0.6-0.5c0.1-0.1,0.1-0.1,0.2-0.2c0.2-0.2,0.4-0.3,0.6-0.5
				c0.1-0.1,0.1-0.1,0.2-0.2c0.2-0.2,0.4-0.4,0.5-0.5c0.1-0.1,0.1-0.1,0.2-0.2c0.2-0.2,0.4-0.4,0.5-0.5c0.1-0.1,0.1-0.1,0.2-0.2
				c0.2-0.2,0.3-0.4,0.5-0.5c0,0,0.1-0.1,0.1-0.1c0.2-0.2,0.4-0.4,0.5-0.6c0,0,0.1-0.1,0.1-0.1c1-1,1.9-2,2.7-3c0,0,0.1-0.1,0.1-0.1
				c0.1-0.1,0.2-0.3,0.4-0.4c0.1-0.1,0.1-0.1,0.2-0.2c0.1-0.1,0.2-0.2,0.3-0.4c0.1-0.1,0.1-0.1,0.2-0.2c0.1-0.1,0.2-0.2,0.3-0.4
				c0.1-0.1,0.1-0.1,0.2-0.2c0.1-0.1,0.2-0.2,0.3-0.4c0.1-0.1,0.1-0.2,0.2-0.2c0.1-0.1,0.2-0.2,0.2-0.3c0.1-0.1,0.1-0.2,0.2-0.2
				c0.1-0.1,0.1-0.2,0.2-0.3c0-0.1,0.1-0.2,0.2-0.2c0.1-0.1,0.1-0.2,0.2-0.3c0-0.1,0.1-0.2,0.1-0.2c0.1-0.1,0.1-0.2,0.2-0.3
				c0-0.1,0.1-0.2,0.1-0.2c0.1-0.1,0.1-0.2,0.2-0.3c0-0.1,0.1-0.1,0.1-0.2c0-0.1,0.1-0.2,0.1-0.3c0-0.1,0.1-0.1,0.1-0.2
				c0-0.1,0.1-0.2,0.1-0.2c0-0.1,0.1-0.1,0.1-0.2c0-0.1,0.1-0.2,0.1-0.2c0-0.1,0.1-0.1,0.1-0.2c0-0.1,0.1-0.2,0.1-0.2
				c0-0.1,0.1-0.1,0.1-0.2c0-0.1,0.1-0.2,0.1-0.3c0-0.1,0.1-0.2,0.1-0.3c0-0.1,0-0.1,0.1-0.2c0-0.1,0-0.1,0.1-0.2c0-0.1,0-0.1,0-0.2
				c0-0.1,0-0.1,0-0.2c0-0.1,0-0.1,0-0.2c0-0.1,0-0.1,0-0.2c0-0.1,0-0.1,0-0.2c0-0.1,0-0.1,0-0.2
				C756.1,397.2,756.1,397.2,756.1,397.1z"/>
			<g>
				<path class="st18" d="M677.1,443.2c0.4,1.3,2,1.7,4.7,1.3c-0.2-0.2-0.4-0.5-0.5-0.7c-0.9-3.3,2.9-7.6,4.5-9.2
					c-0.3-0.6-0.6-1.2-0.8-1.7c-1.2,0.8-3.6,2.5-6.2,4.6C677.5,439.2,676.6,441.4,677.1,443.2z"/>
				<path class="st18" d="M728.9,406.5c1.7-0.8,4.3-1.9,6.5-2.4c-0.7-1.4-3.4-0.9-6.1,0c-0.6,0.4-1.2,0.7-1.7,1.1
					C728.1,405.5,728.5,406,728.9,406.5z"/>
				<path class="st18" d="M756.1,397.1c0-0.1,0-0.1,0-0.2c0,0,0-0.1,0-0.1c0-0.1,0-0.1,0-0.2c0,0,0-0.1,0-0.1c0,0,0-0.1,0-0.1
					c0,0,0-0.1,0-0.1c0,0,0-0.1-0.1-0.1c0,0,0-0.1-0.1-0.1c0,0,0-0.1-0.1-0.1c0,0,0-0.1-0.1-0.1c0,0-0.1-0.1-0.1-0.1
					c0,0,0-0.1-0.1-0.1c0,0-0.1-0.1-0.1-0.1c0,0-0.1-0.1-0.1-0.1c0,0-0.1-0.1-0.1-0.1c0,0-0.1-0.1-0.1-0.1c0,0-0.1-0.1-0.2-0.1
					c0,0-0.1,0-0.1-0.1c-0.1,0-0.1-0.1-0.2-0.1c0,0-0.1,0-0.1-0.1c-0.1,0-0.2-0.1-0.3-0.1c-0.9-0.3-2.1-0.4-3.5-0.2
					c0,0,0.1,0,0.1,0.1c0,0,0.1,0.1,0.1,0.1c0,0,0.1,0.1,0.1,0.1c0,0,0.1,0.1,0.1,0.1c0,0,0.1,0.1,0.1,0.1c0,0,0.1,0.1,0.1,0.1
					c0,0,0.1,0.1,0.1,0.1c0,0,0,0.1,0.1,0.1c0,0,0.1,0.1,0.1,0.1c0,0,0,0.1,0,0.1c0,0,0,0.1,0.1,0.1c0,0,0,0.1,0,0.1
					c0,0.1,0,0.1,0,0.2c0,0,0,0.1,0,0.1c0,0,0,0.1,0,0.2c0,0,0,0.1,0,0.1c0,0.1,0,0.1,0,0.2c0,0.1,0,0.1,0,0.2c0,0.1,0,0.1,0,0.2
					c0,0.1,0,0.1,0,0.2c0,0.1,0,0.1,0,0.2c0,0.1,0,0.1,0,0.2c0,0.1,0,0.1,0,0.2c0,0.1,0,0.1,0,0.2c0,0.1,0,0.1-0.1,0.2
					c0,0.1,0,0.1,0,0.2c0,0.1-0.1,0.2-0.1,0.3c0,0.1-0.1,0.2-0.1,0.4c0,0.1-0.1,0.1-0.1,0.2c0,0.1-0.1,0.1-0.1,0.2
					c0,0.1-0.1,0.1-0.1,0.2c0,0.1-0.1,0.2-0.1,0.2c0,0.1-0.1,0.1-0.1,0.2c0,0.1-0.1,0.2-0.1,0.3c0,0.1-0.1,0.1-0.1,0.2
					c0,0.1-0.1,0.2-0.1,0.3c0,0.1-0.1,0.1-0.1,0.2c-0.1,0.1-0.1,0.2-0.2,0.3c0,0.1-0.1,0.1-0.1,0.2c-0.1,0.1-0.1,0.2-0.2,0.3
					c0,0.1-0.1,0.2-0.1,0.2c-0.1,0.1-0.1,0.2-0.2,0.3c-0.1,0.1-0.1,0.1-0.2,0.2c-0.1,0.1-0.1,0.2-0.2,0.3c-0.1,0.1-0.1,0.2-0.2,0.2
					c-0.1,0.1-0.2,0.2-0.2,0.3c-0.1,0.1-0.1,0.2-0.2,0.2c-0.1,0.1-0.2,0.2-0.3,0.3c-0.1,0.1-0.1,0.2-0.2,0.2
					c-0.1,0.1-0.2,0.2-0.3,0.4c-0.1,0.1-0.1,0.1-0.2,0.2c-0.1,0.1-0.2,0.3-0.3,0.4c0,0.1-0.1,0.1-0.1,0.2c-0.1,0.1-0.2,0.3-0.4,0.4
					c0,0-0.1,0.1-0.1,0.1c-0.8,0.9-1.7,1.9-2.7,3c0,0-0.1,0.1-0.1,0.1c-0.2,0.2-0.4,0.4-0.5,0.5c0,0-0.1,0.1-0.1,0.1
					c-0.2,0.2-0.4,0.4-0.5,0.5c-0.1,0-0.1,0.1-0.2,0.1c-0.2,0.2-0.3,0.4-0.5,0.5c-0.1,0.1-0.1,0.1-0.2,0.2c-0.2,0.2-0.4,0.4-0.5,0.5
					c-0.1,0.1-0.1,0.1-0.2,0.2c-0.2,0.2-0.4,0.3-0.6,0.5c-0.1,0.1-0.1,0.1-0.2,0.2c-0.2,0.2-0.4,0.3-0.6,0.5
					c-0.1,0.1-0.1,0.1-0.2,0.2c-0.2,0.2-0.4,0.4-0.6,0.5c-0.1,0.1-0.1,0.1-0.2,0.2c-0.2,0.2-0.4,0.4-0.6,0.6
					c-0.1,0.1-0.1,0.1-0.2,0.2c-0.2,0.2-0.4,0.4-0.7,0.6c-0.1,0-0.1,0.1-0.2,0.1c-0.2,0.2-0.5,0.4-0.7,0.6c0,0-0.1,0.1-0.1,0.1
					c-0.3,0.2-0.5,0.5-0.8,0.7c0,0,0,0,0,0c-2.1,1.8-4.4,3.7-6.9,5.6c0,0,0,0-0.1,0c-0.3,0.3-0.6,0.5-1,0.8c0,0-0.1,0.1-0.1,0.1
					c-0.3,0.2-0.6,0.5-0.9,0.7c-0.1,0.1-0.1,0.1-0.2,0.2c-0.3,0.2-0.6,0.5-1,0.7c-0.1,0.1-0.1,0.1-0.2,0.2c-0.3,0.2-0.6,0.5-1,0.7
					c-0.1,0.1-0.2,0.1-0.2,0.1c-0.3,0.2-0.6,0.5-1,0.7c-0.1,0-0.1,0.1-0.2,0.2c-0.3,0.2-0.7,0.5-1,0.7c-0.1,0.1-0.2,0.1-0.2,0.2
					c-0.3,0.2-0.7,0.5-1,0.7c-0.1,0-0.1,0.1-0.2,0.2c-0.4,0.3-0.7,0.5-1.1,0.8c-0.1,0-0.1,0.1-0.2,0.1c-0.4,0.3-0.8,0.5-1.1,0.8
					c0,0-0.1,0-0.1,0.1c-2.2,1.5-4.4,3-6.8,4.6c-16.8,11.1-35.2,20.9-44.3,21.8c5.9,3.5,28.3-7.9,48.5-21.2c2.3-1.5,4.6-3.1,6.8-4.6
					c0,0,0.1,0,0.1-0.1c0.4-0.3,0.8-0.5,1.1-0.8c0.1,0,0.1-0.1,0.2-0.1c0.4-0.2,0.7-0.5,1.1-0.8c0.1,0,0.1-0.1,0.2-0.1
					c0.3-0.2,0.7-0.5,1-0.7c0.1,0,0.2-0.1,0.2-0.2c0.3-0.2,0.7-0.5,1-0.7c0.1-0.1,0.2-0.1,0.2-0.2c0.3-0.2,0.7-0.5,1-0.7
					c0.1-0.1,0.2-0.1,0.2-0.2c0.3-0.2,0.6-0.5,1-0.7c0.1-0.1,0.1-0.1,0.2-0.2c0.3-0.2,0.6-0.5,0.9-0.7c0.1,0,0.1-0.1,0.2-0.1
					c0.3-0.2,0.6-0.5,0.9-0.7c0,0,0.1-0.1,0.1-0.1c0.3-0.2,0.6-0.5,1-0.8c0,0,0,0,0.1,0c2.5-1.9,4.8-3.8,6.9-5.6c0,0,0,0,0,0
					c0.3-0.2,0.5-0.5,0.8-0.7c0,0,0.1-0.1,0.1-0.1c0.3-0.2,0.5-0.4,0.7-0.6c0.1,0,0.1-0.1,0.2-0.1c0.2-0.2,0.5-0.4,0.7-0.6
					c0.1-0.1,0.1-0.1,0.2-0.2c0.2-0.2,0.4-0.4,0.6-0.6c0.1-0.1,0.1-0.1,0.2-0.2c0.2-0.2,0.4-0.4,0.6-0.5c0.1-0.1,0.1-0.1,0.2-0.2
					c0.2-0.2,0.4-0.3,0.6-0.5c0.1-0.1,0.1-0.1,0.2-0.2c0.2-0.2,0.4-0.3,0.6-0.5c0.1-0.1,0.1-0.1,0.2-0.2c0.2-0.2,0.4-0.4,0.5-0.5
					c0.1-0.1,0.1-0.1,0.2-0.2c0.2-0.2,0.4-0.4,0.5-0.5c0.1-0.1,0.1-0.1,0.2-0.2c0.2-0.2,0.3-0.4,0.5-0.5c0,0,0.1-0.1,0.1-0.1
					c0.2-0.2,0.4-0.4,0.5-0.6c0,0,0.1-0.1,0.1-0.1c1-1,1.9-2,2.7-3c0,0,0.1-0.1,0.1-0.1c0.1-0.1,0.2-0.3,0.4-0.4
					c0.1-0.1,0.1-0.1,0.2-0.2c0.1-0.1,0.2-0.2,0.3-0.4c0.1-0.1,0.1-0.1,0.2-0.2c0.1-0.1,0.2-0.2,0.3-0.4c0.1-0.1,0.1-0.1,0.2-0.2
					c0.1-0.1,0.2-0.2,0.3-0.4c0.1-0.1,0.1-0.2,0.2-0.2c0.1-0.1,0.2-0.2,0.2-0.3c0.1-0.1,0.1-0.2,0.2-0.2c0.1-0.1,0.1-0.2,0.2-0.3
					c0-0.1,0.1-0.2,0.2-0.2c0.1-0.1,0.1-0.2,0.2-0.3c0-0.1,0.1-0.2,0.1-0.2c0.1-0.1,0.1-0.2,0.2-0.3c0-0.1,0.1-0.2,0.1-0.2
					c0.1-0.1,0.1-0.2,0.2-0.3c0-0.1,0.1-0.1,0.1-0.2c0-0.1,0.1-0.2,0.1-0.3c0-0.1,0.1-0.1,0.1-0.2c0-0.1,0.1-0.2,0.1-0.2
					c0-0.1,0.1-0.1,0.1-0.2c0-0.1,0.1-0.2,0.1-0.2c0-0.1,0.1-0.1,0.1-0.2c0-0.1,0.1-0.2,0.1-0.2c0-0.1,0.1-0.1,0.1-0.2
					c0-0.1,0.1-0.2,0.1-0.3c0-0.1,0.1-0.2,0.1-0.3c0-0.1,0-0.1,0.1-0.2c0-0.1,0-0.1,0.1-0.2c0-0.1,0-0.1,0-0.2c0-0.1,0-0.1,0-0.2
					c0-0.1,0-0.1,0-0.2c0-0.1,0-0.1,0-0.2c0-0.1,0-0.1,0-0.2c0-0.1,0-0.1,0-0.2C756.1,397.2,756.1,397.2,756.1,397.1z"/>
			</g>
		</g>
	</g>
	<g>
		<g>
			<path class="st19" d="M47.6,359.1c-0.1,1.6,0,3.1,0.2,4.6c0.1,0.8,0.3,1.5,0.5,2.2c2,7.1,6.1,13.6,12.1,17.7
				c0.7,0.5,1.3,0.9,2,1.3c6.3,5.2,14.7,7.2,22.7,6.2c0.9-0.1,1.8-0.2,2.6-0.4c5-0.5,9.7-2.2,13.5-5.1c0.6-0.5,1.3-1,1.9-1.5
				c2.2-1.8,4.1-3.7,5.7-5.9c0.5-0.7,1-1.4,1.5-2.2c1.5-2.5,2.5-5.1,3.2-7.8c0.2-0.9,0.4-1.8,0.6-2.7c0.6-2.6,1-5.2,1-7.9
				c0-0.9,0-1.7-0.1-2.6c0-0.9-0.1-1.8-0.2-2.7c-0.1-0.9-0.3-1.8-0.5-2.6c-2.2-8.6-7.8-16.3-15.7-20.3c-0.6-0.3-1.2-0.6-1.8-0.9
				c-3.7-1.7-7.9-2.6-12.2-2.7c-0.7-0.1-1.5-0.1-2.2-0.1c-0.7,0-1.5,0-2.2,0c-0.9,0-1.8,0.1-2.7,0.2c-3.7,0.3-7.3,1.3-10.6,2.8
				c-0.8,0.4-1.6,0.8-2.4,1.3c-6.7,3.2-11.9,9.1-13.9,16.3c-0.3,0.9-0.5,1.8-0.6,2.8c-0.4,2.6-0.9,5.1-1.9,7.8
				C47.9,357.5,47.7,358.3,47.6,359.1z"/>
			<path class="st20" d="M104.5,333.4c-1.3-1.1-2.6-2.1-4.1-3c-19.6,27.6-52.6,33.4-52.6,33.4c0.1,0.8,0.3,1.5,0.5,2.2
				c0.2,0.6,0.4,1.3,0.6,1.9C81.9,360.4,98.9,341.1,104.5,333.4z"/>
			<path class="st20" d="M97.5,328.8c-0.2-0.1-0.4-0.2-0.6-0.3c-1.4-0.6-2.9-1.2-4.4-1.6c-14.3,18-34.1,25.8-44,28.7
				c-0.1,0.4-0.2,0.7-0.4,1c-0.2,0.8-0.4,1.6-0.5,2.5c0,0.4,0,0.8,0,1.1C75.4,352.8,90.9,337,97.5,328.8z"/>
			<g>
				<g>
					<path class="st21" d="M109.6,353.7c0-9-3.5-17.2-9.2-23.4c7,4.2,11.9,11.3,14,19.4c0.2,0.9,0.4,1.7,0.5,2.6
						c0.1,0.9,0.2,1.8,0.2,2.7c0.1,0.9,0.1,1.7,0.1,2.6c0,2.6-0.4,5.3-1,7.9c-0.2,0.9-0.4,1.8-0.6,2.7c-0.7,2.7-1.8,5.3-3.2,7.8
						c-0.5,0.8-1,1.5-1.5,2.2c-1.6,2.1-3.5,4.1-5.7,5.9c-0.6,0.5-1.2,1-1.9,1.5c-3.9,2.9-8.5,4.6-13.5,5.1c-0.9,0.2-1.8,0.3-2.6,0.4
						c-7.3,0.9-14.9-0.7-21-4.9c3.5,1.2,7.2,1.8,11.1,1.8C94.2,388.1,109.6,372.7,109.6,353.7z"/>
				</g>
			</g>
			<g>
				<path class="st21" d="M65,375.9c0,0.5,0.4,0.9,0.9,0.9c0.5,0,0.9-0.4,0.9-0.9c0-0.5-0.4-0.9-0.9-0.9C65.4,375,65,375.4,65,375.9
					z"/>
				<path class="st21" d="M63.6,374.9c0,0.2,0.2,0.4,0.4,0.4c0.2,0,0.4-0.2,0.4-0.4c0-0.2-0.2-0.4-0.4-0.4
					C63.8,374.5,63.6,374.7,63.6,374.9z"/>
				<path class="st21" d="M68.6,375c0,0.2,0.2,0.4,0.4,0.4c0.2,0,0.4-0.2,0.4-0.4c0-0.2-0.2-0.4-0.4-0.4
					C68.8,374.6,68.6,374.8,68.6,375z"/>
				<path class="st21" d="M63.5,376.5c0,0.3,0.2,0.5,0.5,0.5c0.3,0,0.5-0.2,0.5-0.5c0-0.3-0.2-0.5-0.5-0.5
					C63.7,376.1,63.5,376.3,63.5,376.5z"/>
			</g>
			<g>
				<path class="st21" d="M100.1,371.3c0,0.5,0.4,0.9,0.9,0.9c0.5,0,0.9-0.4,0.9-0.9c0-0.5-0.4-0.9-0.9-0.9
					C100.5,370.4,100.1,370.8,100.1,371.3z"/>
				<path class="st21" d="M98.8,370.4c0,0.2,0.2,0.4,0.4,0.4c0.2,0,0.4-0.2,0.4-0.4c0-0.2-0.2-0.4-0.4-0.4
					C98.9,370,98.8,370.1,98.8,370.4z"/>
				<path class="st21" d="M103.8,370.4c0,0.2,0.2,0.4,0.4,0.4c0.2,0,0.4-0.2,0.4-0.4c0-0.2-0.2-0.4-0.4-0.4
					C103.9,370,103.8,370.2,103.8,370.4z"/>
				<path class="st21" d="M98.6,372c0,0.3,0.2,0.5,0.5,0.5c0.3,0,0.5-0.2,0.5-0.5c0-0.3-0.2-0.5-0.5-0.5
					C98.8,371.5,98.6,371.7,98.6,372z"/>
			</g>
			<g>
				<path class="st21" d="M98.5,341.2c-0.4,0.8,0,1.8,0.8,2.2c0.8,0.4,1.8,0,2.2-0.8c0.4-0.8,0-1.8-0.8-2.2
					C99.8,340,98.8,340.3,98.5,341.2z"/>
				<path class="st21" d="M97,338.5c-0.2,0.4,0,0.8,0.3,1c0.4,0.2,0.8,0,1-0.3c0.2-0.4,0-0.8-0.4-1C97.6,338,97.1,338.1,97,338.5z"
					/>
				<path class="st21" d="M105.2,342.5c-0.2,0.4,0,0.8,0.4,1c0.4,0.2,0.8,0,1-0.3c0.2-0.4,0-0.8-0.4-1
					C105.8,342,105.4,342.2,105.2,342.5z"/>
				<path class="st21" d="M95.5,341.1c-0.2,0.4,0,0.9,0.4,1.1c0.4,0.2,0.9,0,1.1-0.4c0.2-0.4,0-0.9-0.4-1.1
					C96.2,340.5,95.7,340.7,95.5,341.1z"/>
				<path class="st21" d="M56.2,346.6c-0.4,0.8,0,1.8,0.8,2.2c0.8,0.4,1.8,0,2.2-0.8c0.4-0.8,0-1.8-0.8-2.2
					C57.6,345.4,56.6,345.8,56.2,346.6z"/>
				<path class="st21" d="M54.7,343.9c-0.2,0.4,0,0.8,0.4,1c0.4,0.2,0.8,0,1-0.4c0.2-0.4,0-0.8-0.4-1
					C55.3,343.4,54.9,343.6,54.7,343.9z"/>
				<path class="st21" d="M53.2,346.5c-0.2,0.4,0,0.9,0.4,1.2c0.4,0.2,0.9,0,1.1-0.4c0.2-0.4,0-0.9-0.4-1.1
					C53.9,345.9,53.4,346.1,53.2,346.5z"/>
			</g>
		</g>
	</g>
</g>
</svg>
